<svg width="315" height="54" viewBox="0 0 315 54" fill="none" xmlns="http://www.w3.org/2000/svg">
<path fill-rule="evenodd" clip-rule="evenodd" d="M0 20.0001V10.0001C0 7.2387 0.976311 4.88168 2.92893 2.92905C4.88155 0.976433 7.23858 0.00012207 10 0.00012207H305C307.761 0.00012207 310.118 0.976433 312.071 2.92905C314.024 4.88168 315 7.2387 315 10.0001V44.0001C315 46.7615 314.024 49.1186 312.071 51.0712C310.118 53.0238 307.761 54.0001 305 54.0001H10C7.23858 54.0001 4.88155 53.0238 2.92893 51.0712C0.976311 49.1186 0 46.7615 0 44.0001V20.0001Z" fill="url(#paint0_linear)"/>
<path fill-rule="evenodd" clip-rule="evenodd" d="M278.23 18.2051C277.874 17.8688 277.316 17.8752 276.968 18.2197C276.62 18.5642 276.609 19.1224 276.942 19.4811L283.476 26.0151H261.912C261.415 26.0151 261.012 26.4181 261.012 26.9151C261.008 27.4162 261.411 27.8257 261.912 27.8301H283.476L276.942 34.3551C276.593 34.7141 276.593 35.2852 276.942 35.6441C277.111 35.8179 277.344 35.9159 277.586 35.9159C277.829 35.9159 278.061 35.8179 278.231 35.6441L286.312 27.5611C286.485 27.394 286.583 27.1637 286.583 26.9231C286.583 26.6825 286.485 26.4522 286.312 26.2851L278.23 18.2051Z" fill="white"/>
<path d="M136.352 32.1061C138.72 32.1061 140.128 30.6821 140.128 28.9861C140.128 27.4661 139.264 26.6821 138.016 26.1541L136.608 25.5781C135.744 25.2101 134.96 24.9221 134.96 24.1221C134.96 23.3701 135.584 22.9221 136.56 22.9221C137.36 22.9221 138.128 23.2421 138.784 23.8021L139.808 22.5541C138.992 21.7701 137.824 21.2581 136.56 21.2581C134.512 21.2581 133.04 22.5541 133.04 24.2341C133.04 25.7541 134.112 26.5701 135.152 27.0021L136.576 27.6261C137.52 28.0261 138.192 28.2981 138.192 29.1301C138.192 29.9301 137.552 30.4581 136.4 30.4581C135.392 30.4581 134.352 30.0421 133.6 29.3221L132.576 30.5701C133.568 31.5781 134.912 32.1061 136.352 32.1061ZM142.03 31.9141H143.934V21.4501H142.03V31.9141ZM150.977 32.1061C152.401 32.1061 153.617 31.5621 154.321 30.8581V26.2341H150.673V27.7861H152.609V30.0101C152.289 30.2981 151.729 30.4581 151.169 30.4581C149.073 30.4581 147.985 29.0181 147.985 26.6661C147.985 24.3301 149.217 22.9221 151.057 22.9221C152.017 22.9221 152.625 23.2421 153.153 23.7541L154.161 22.5861C153.505 21.8981 152.481 21.2581 150.993 21.2581C148.209 21.2581 146.033 23.2901 146.033 26.7141C146.033 30.1861 148.145 32.1061 150.977 32.1061ZM156.64 31.9141H158.416V27.3381C158.416 26.1701 158.288 24.8741 158.176 23.7861H158.24C158.576 24.6181 158.928 25.4501 159.312 26.1541L162.448 31.9141H164.48V21.4501H162.704V26.0261C162.704 27.1781 162.832 28.4581 162.944 29.5781H162.88C162.544 28.7461 162.192 27.9141 161.808 27.2101L158.672 21.4501H156.64V31.9141ZM170.343 31.9141H172.247V21.4501H170.343V31.9141ZM174.89 31.9141H176.666V27.3381C176.666 26.1701 176.538 24.8741 176.426 23.7861H176.49C176.826 24.6181 177.178 25.4501 177.562 26.1541L180.698 31.9141H182.73V21.4501H180.954V26.0261C180.954 27.1781 181.082 28.4581 181.194 29.5781H181.13C180.794 28.7461 180.442 27.9141 180.058 27.2101L176.922 21.4501H174.89V31.9141Z" fill="white"/>
<defs>
<linearGradient id="paint0_linear" x1="232.575" y1="89.1928" x2="243.521" y2="-0.193125" gradientUnits="userSpaceOnUse">
<stop stop-color="#2855AE"/>
<stop offset="1" stop-color="#7292CF"/>
</linearGradient>
</defs>
</svg>
