<svg width="375" height="384" viewBox="0 0 375 384" fill="none" xmlns="http://www.w3.org/2000/svg">
<mask id="mask0" style="mask-type:alpha" maskUnits="userSpaceOnUse" x="0" y="0" width="375" height="385">
<rect width="375" height="385" fill="white"/>
</mask>
<g mask="url(#mask0)">
<ellipse opacity="0.2" cx="186.122" cy="341.772" rx="167.424" ry="8.99" fill="#71ABDE"/>
<path fill-rule="evenodd" clip-rule="evenodd" d="M170.563 206.055C170.563 206.055 183.4 203.972 189.789 206.272C194.412 207.935 199.961 211.904 201.449 223.895C201.449 223.895 186.165 228.395 170.564 228.543C170.563 228.544 168.163 214.523 170.563 206.055Z" fill="#F3AE92"/>
<path opacity="0.5" fill-rule="evenodd" clip-rule="evenodd" d="M182.162 227.728C182.574 224.188 182.942 218.219 181.362 214.613C180.062 211.642 175.714 209.175 170.043 208.342C168.551 216.824 170.556 228.542 170.556 228.542C174.437 228.489 178.312 228.217 182.162 227.728H182.162Z" fill="#EB7C74"/>
<path opacity="0.2" fill-rule="evenodd" clip-rule="evenodd" d="M189.789 206.272C186.683 205.379 183.449 205.018 180.223 205.203C183.406 205.344 193.536 207.791 196.473 214.547C197.774 217.745 198.697 221.083 199.224 224.495C200.642 224.131 201.449 223.895 201.449 223.895C199.959 211.904 194.41 207.936 189.789 206.272Z" fill="white"/>
<path fill-rule="evenodd" clip-rule="evenodd" d="M75.0785 220.617C69.1145 218.793 69.4365 218.475 63.9375 216.486C58.4385 214.497 57.7254 214.286 52.9925 212.527C48.2596 210.768 31.4995 208.465 24.0755 230.249C16.4236 252.698 24.9465 260.023 29.9505 263.735C37.7185 269.498 55.6805 276.027 60.8806 278.155C60.8795 278.155 50.6914 241.34 75.0785 220.617Z" fill="#F29297"/>
<path fill-rule="evenodd" clip-rule="evenodd" d="M75.0785 220.617C69.1145 218.793 69.4365 218.475 63.9375 216.486C58.4385 214.497 57.7254 214.286 52.9925 212.527C48.2596 210.768 31.4995 208.465 24.0755 230.249C16.4236 252.698 24.9465 260.023 29.9505 263.735C37.7185 269.498 55.6805 276.027 60.8806 278.155C60.8795 278.155 50.6914 241.34 75.0785 220.617Z" fill="#F29297"/>
<path fill-rule="evenodd" clip-rule="evenodd" d="M73.853 220.995C65.853 218.852 54.977 214.501 51.1939 213.556C47.4108 212.611 41.7359 212.893 38.6149 215.542C35.4939 218.191 43.17 215.513 52.342 218.634C61.514 221.755 65.376 223.62 68.431 224.792C71.4859 225.964 73.853 220.995 73.853 220.995Z" fill="#F5A9A7"/>
<path opacity="0.5" fill-rule="evenodd" clip-rule="evenodd" d="M48.0496 240.173C42.6326 237.71 36.7266 235.235 33.2495 231.36C26.1925 223.495 31.7605 217.16 36.1655 214.06C31.5525 216.633 27.0596 221.493 24.0756 230.249C16.4236 252.698 24.9465 260.023 29.9496 263.735C37.7186 269.498 55.6805 276.027 60.8806 278.155C60.8806 278.155 56.5076 262.348 60.3527 245.619C56.1106 243.795 51.9966 241.967 48.0496 240.173Z" fill="#EC6469"/>
<path opacity="0.5" fill-rule="evenodd" clip-rule="evenodd" d="M30.5276 218.635C27.6157 222.032 25.4202 225.983 24.0726 230.25C16.4207 252.699 24.9436 260.024 29.9467 263.736C37.7157 269.499 55.6776 276.028 60.8777 278.156C59.481 272.407 58.776 266.511 58.7776 260.594C50.3569 257.222 42.2502 253.113 34.5518 248.316C18.2606 237.669 29.5746 220.06 30.5276 218.635Z" fill="#E73555"/>
<path fill-rule="evenodd" clip-rule="evenodd" d="M95.3662 288.19C94.8287 288.921 93.9545 289.326 93.0492 289.264C91.0282 289.23 87.0032 287.273 76.6983 284.025C68.4132 281.414 63.2203 280.372 61.6673 278.983C57.7983 275.523 52.9912 262.521 56.5313 246.198C59.8413 230.939 69.8813 222.838 73.3313 221.222C76.1563 219.899 79.2104 220.176 84.9943 221.9C88.4941 222.942 92.0574 223.758 95.6621 224.341C97.7183 224.675 99.6873 224.917 101.546 225.088C106.441 225.536 105.534 227.361 105.534 227.361C105.534 227.361 88.6443 233.656 84.7793 252.07C79.9113 275.259 95.3662 288.19 95.3662 288.19Z" fill="#16A461"/>
<path fill-rule="evenodd" clip-rule="evenodd" d="M73.8527 220.996C73.6776 221.065 73.5027 221.14 73.3286 221.222C71.5345 222.174 69.8846 223.377 68.4287 224.793C75.848 227.735 83.4416 230.216 91.1663 232.224C91.1666 232.224 95.5126 231.808 98.8196 231.119C100.001 230.283 101.105 229.598 102.063 229.055C101.136 228.587 100.143 228.266 99.1187 228.101C90.7997 226.313 78.9316 222.618 73.8527 220.996Z" fill="#3EC664"/>
<path fill-rule="evenodd" clip-rule="evenodd" d="M57.0213 244.242C56.8503 244.886 56.6773 245.525 56.5313 246.197C52.9912 262.52 57.7983 275.522 61.6673 278.983C63.2203 280.372 68.4142 281.415 76.6983 284.025C87.0033 287.273 91.0282 289.231 93.0492 289.264C93.9545 289.326 94.8286 288.921 95.3662 288.19C95.3662 288.19 81.3553 276.45 84.2303 255.295C74.7813 251.807 65.6012 248.016 57.0213 244.242Z" fill="#16935D"/>
<path fill-rule="evenodd" clip-rule="evenodd" d="M93.0502 289.263C93.9553 289.325 94.8295 288.92 95.3671 288.189C91.3011 284.375 88.1873 279.661 86.2762 274.424L78.3762 267.854C78.3762 267.854 67.5652 264.459 55.3252 259.143C55.6462 269.127 58.8982 276.502 61.6702 278.981C63.2231 280.37 68.4171 281.412 76.7012 284.023C87.0042 287.272 91.0292 289.23 93.0502 289.263Z" fill="#0E7F4C"/>
<path fill-rule="evenodd" clip-rule="evenodd" d="M70.4199 251.357C73.9249 230.623 92.7789 224.724 95.0919 224.24C91.941 223.707 88.8228 222.997 85.7518 222.114H85.7379C82.5759 222.463 66.3808 229.814 63.4578 248.394C60.6248 266.394 67.8428 279.456 70.3848 282.127C72.2319 282.661 74.3338 283.276 76.6978 284.02C77.8729 284.391 78.9559 284.741 79.9738 285.077C79.9738 285.077 67.0529 271.274 70.4199 251.357Z" fill="#FFD348"/>
<path fill-rule="evenodd" clip-rule="evenodd" d="M81.8867 223.486C79.6624 224.581 77.5668 225.92 75.6387 227.479C78.0327 228.325 80.6666 229.209 83.4116 230.053C85.5833 228.432 87.9231 227.05 90.3906 225.931C87.4807 225.138 84.5477 224.286 81.8867 223.486Z" fill="#FFE568"/>
<g style="mix-blend-mode:multiply" opacity="0.1">
<path fill-rule="evenodd" clip-rule="evenodd" d="M79.9699 285.081H79.9759C79.9759 285.081 67.0529 271.274 70.4199 251.358C70.4969 250.905 70.5888 250.468 70.6799 250.03C68.3191 249.069 65.9896 248.103 63.6909 247.13C63.6088 247.55 63.5258 247.971 63.4578 248.404C60.6248 266.404 67.8428 279.466 70.3848 282.137L70.4008 282.143L71.5499 282.476L71.9738 282.6L72.9669 282.892L73.4909 283.048C73.8409 283.148 74.2009 283.262 74.5649 283.372L75.0558 283.52C75.5888 283.684 76.1338 283.852 76.6968 284.029C77.2908 284.217 77.8608 284.399 78.4098 284.576C78.9589 284.753 79.4689 284.915 79.9699 285.081Z" fill="#E85D1C"/>
</g>
<g style="mix-blend-mode:multiply" opacity="0.3">
<path fill-rule="evenodd" clip-rule="evenodd" d="M78.4148 284.572C78.9418 284.741 79.4458 284.906 79.9368 285.072L79.9728 285.083H79.9788C75.1462 279.38 71.8864 272.514 70.5217 265.165C68.3588 264.383 65.8528 263.447 63.1377 262.377C64.3376 272.963 68.5647 280.218 70.3877 282.134H70.3977L71.5437 282.466H71.5537L71.8588 282.555C72.3174 282.688 72.79 282.828 73.2767 282.973L73.4948 283.038L74.5558 283.358H74.5658L75.0568 283.506C75.5887 283.669 76.1328 283.837 76.6947 284.014C77.2887 284.202 77.8586 284.384 78.4077 284.561L78.4148 284.572Z" fill="#E85D1C"/>
</g>
<path fill-rule="evenodd" clip-rule="evenodd" d="M275.69 201.566C275.69 201.566 272.605 200.454 261.075 204.925C249.545 209.396 182.008 232.852 105.536 227.36C105.536 227.36 89.7703 225.2 80.1224 247.418C70.4744 269.636 89.2274 285.367 89.2274 285.367C89.2274 285.367 115.472 300.348 178.82 303.286C239.751 306.112 269.141 299.286 282.047 295.986C295.439 292.563 300.029 289.833 300.811 288.108C301.557 286.453 275.69 201.566 275.69 201.566Z" fill="#FFD348"/>
<g style="mix-blend-mode:multiply" opacity="0.1">
<path fill-rule="evenodd" clip-rule="evenodd" d="M154.118 270.711C130.577 270.647 103.185 262.687 78.2312 253.038C73.5902 272.238 89.2221 285.368 89.2221 285.368C89.2221 285.368 115.468 300.349 178.815 303.287C239.746 306.113 269.136 299.287 282.042 295.987C295.434 292.564 300.024 289.834 300.806 288.109C300.996 287.69 299.468 281.896 297.085 273.493L250.216 262.517C250.216 262.517 208.31 270.859 154.118 270.711Z" fill="#E85D1C"/>
</g>
<path fill-rule="evenodd" clip-rule="evenodd" d="M275.689 201.566C275.689 201.566 272.605 200.454 261.074 204.925C249.543 209.396 182.005 232.852 105.531 227.36C105.531 227.36 92.2201 225.553 82.5762 242.497C146.115 263.666 219.546 247.418 242.989 240.003L276.91 228.814L281.987 222.37C278.375 210.376 275.689 201.566 275.689 201.566Z" fill="#FFDA60"/>
<path fill-rule="evenodd" clip-rule="evenodd" d="M259.817 216.423C259.817 216.423 276.87 203.371 271.158 204.631C265.446 205.891 240.486 218.364 188.344 226.809C158.823 231.568 128.765 232.003 99.1188 228.099C96.2306 228.956 93.5322 230.355 91.168 232.222C104.236 235.305 129.235 240.001 163.484 237.709C218.407 234.037 250.081 220.567 259.817 216.423Z" fill="#FFE568"/>
<path d="M82.5762 242.497C146.115 263.666 219.546 247.418 242.989 240.003" stroke="#FFEAA8" stroke-width="3"/>
<path fill-rule="evenodd" clip-rule="evenodd" d="M256.851 277.916C246.678 281.527 168.474 298.885 78.376 267.855C80.2948 274.587 84.0504 280.651 89.2219 285.368C89.2219 285.368 115.467 300.349 178.815 303.287C239.746 306.113 269.136 299.287 282.042 295.987C295.434 292.564 300.024 289.834 300.806 288.109C301.047 287.577 298.524 278.399 294.995 266.209L256.851 277.916Z" fill="#FECB2F"/>
<g style="mix-blend-mode:multiply" opacity="0.3">
<path fill-rule="evenodd" clip-rule="evenodd" d="M300.807 288.106C300.739 287.071 300.545 286.049 300.23 285.061L278.888 284.077C254.242 295.266 148.018 309.354 78.377 267.855C79.2371 271.057 80.5612 274.117 82.3071 276.936C84.1862 280.071 86.5161 282.912 89.2222 285.368C89.222 285.368 115.467 300.349 178.815 303.287C239.746 306.113 269.136 299.287 282.042 295.987C295.435 292.561 300.025 289.83 300.807 288.106Z" fill="#E85D1C"/>
</g>
<path d="M256.851 277.916C246.678 281.527 168.474 298.885 78.376 267.855" stroke="#FFE568" stroke-width="3"/>
<path fill-rule="evenodd" clip-rule="evenodd" d="M104.464 255.312C99.2003 254.178 96.6454 253.598 92.8894 252.971C86.3584 251.882 85.5084 260.434 90.5564 263.271C94.4712 265.445 98.702 266.993 103.095 267.858C105.686 268.442 108.341 268.691 110.995 268.601C113.531 268.465 115.895 266.967 116.465 264.694C117.22 261.897 115.823 258.968 113.174 257.794C110.367 256.662 107.447 255.83 104.464 255.312Z" fill="#16A461"/>
<path fill-rule="evenodd" clip-rule="evenodd" d="M90.5562 263.268C94.471 265.442 98.7018 266.99 103.095 267.855C105.686 268.439 108.341 268.688 110.995 268.598C113.208 268.567 115.222 267.315 116.229 265.345C106.609 262.936 96.8992 259.872 87.4202 256.466C86.9094 259.17 88.1683 261.901 90.5562 263.268Z" fill="#16935D"/>
<path fill-rule="evenodd" clip-rule="evenodd" d="M108.07 266.378C107.47 266.333 107.176 266.306 106.585 266.243C105.985 265.601 105.693 265.275 105.133 264.615C101.841 260.659 100.642 258.62 98.5168 257.88C97.0838 257.38 95.4888 257.435 94.5668 259.223C94.1175 260.199 94.1055 261.319 94.5339 262.304C93.8268 262.27 93.4728 262.246 92.7648 262.183C92.2907 260.853 92.4245 259.382 93.1308 258.159C94.2408 256.067 96.7676 255.174 98.9457 256.103C101.433 256.973 102.937 259.217 105.609 262.458C105.993 262.948 106.19 263.191 106.596 263.671L106.647 263.677C107.164 261.292 107.381 260.095 107.726 257.702C108.39 257.768 108.726 257.794 109.396 257.831C109.124 260.704 108.681 263.558 108.07 266.378L108.07 266.378Z" fill="#FFD348"/>
<path fill-rule="evenodd" clip-rule="evenodd" d="M275.691 201.565C272.691 202.365 263.132 211.798 256.616 220.45C250.1 229.102 243.465 236.45 242.99 240.003C242.515 243.556 247.848 255.879 250.217 262.514C252.586 269.149 255.786 276.614 256.852 277.914C257.918 279.214 272.847 282.414 278.889 284.075C284.931 285.736 298.675 288.575 300.808 288.104C302.941 287.633 323.333 266.136 333.632 252.047C341.382 241.557 348.46 230.587 354.825 219.203C355.654 217.426 355.664 214.173 351.28 213.462C346.896 212.751 326.99 210.224 311.234 207.775C296.491 205.485 279.008 200.685 275.691 201.565Z" fill="#F8E9D0"/>
<path fill-rule="evenodd" clip-rule="evenodd" d="M353.187 214.051C352.585 213.759 351.942 213.561 351.28 213.463C346.897 212.752 326.99 210.225 311.234 207.776C296.491 205.484 279.008 200.685 275.69 201.565C272.69 202.365 263.131 211.798 256.615 220.45C251.278 227.537 245.867 233.742 243.821 237.711C247.563 236.526 261.831 234.011 291.286 228.542C296.772 227.524 303.369 226.231 308.786 225.272C323.823 222.539 338.657 218.79 353.187 214.051L353.187 214.051Z" fill="#FCF1E0"/>
<path fill-rule="evenodd" clip-rule="evenodd" d="M353.187 214.051C356.338 218.066 350.414 222.1 344.004 227.606C337.594 233.112 322.936 243.719 295.764 252.048C267.644 260.669 261.509 260.669 250.219 262.513C252.588 269.148 255.788 276.613 256.854 277.913C257.92 279.213 272.849 282.413 278.891 284.074C284.933 285.735 298.677 288.574 300.81 288.103C302.943 287.632 323.335 266.135 333.634 252.046C341.383 241.556 348.461 230.586 354.825 219.202C355.313 218.306 355.415 217.249 355.105 216.277C354.796 215.304 354.103 214.5 353.187 214.051Z" fill="#F5DFCE"/>
<path fill-rule="evenodd" clip-rule="evenodd" d="M345.494 214.552C345.494 214.552 324.457 213.315 308.762 210.616C294.445 208.154 274.962 204.116 271.162 204.634C267.086 208.269 263.295 212.211 259.821 216.426C261.291 215.467 268.166 215.315 287.821 216.433C304.339 217.372 336.144 217.105 345.494 214.552Z" fill="#FFF8ED"/>
<path fill-rule="evenodd" clip-rule="evenodd" d="M352.743 222.963C343.293 238.563 312.717 268.671 278.89 284.076C284.933 285.735 298.676 288.576 300.809 288.105C302.942 287.634 323.334 266.137 333.633 252.048C342.515 239.898 349.433 228.671 352.743 222.963H352.743Z" fill="#EDC1AD"/>
<path fill-rule="evenodd" clip-rule="evenodd" d="M351.28 213.463C347.241 212.808 330.025 210.611 315.018 208.354C315.018 208.354 304.812 217.441 310.469 233.739C316.126 250.037 333.632 252.048 333.632 252.048C341.382 241.558 348.461 230.588 354.825 219.204C355.655 217.427 355.664 214.175 351.28 213.463Z" fill="#194A72"/>
<path fill-rule="evenodd" clip-rule="evenodd" d="M350.691 213.371L350.315 213.315L350.103 213.283L349.727 213.227L349.427 213.184L349.056 213.13L348.717 213.082L348.306 213.024L347.952 212.974L347.464 212.906L347.145 212.861L346.545 212.778L346.256 212.739C339.045 211.739 326.4 210.066 315.021 208.355C310.647 212.86 308.383 219.005 308.79 225.271C332.621 221.049 355.861 215.305 351.283 213.463L350.842 213.394L350.691 213.371Z" fill="#29688C"/>
<path fill-rule="evenodd" clip-rule="evenodd" d="M354.996 218.768C355.022 218.693 355.047 218.617 355.069 218.539C355.083 218.49 355.096 218.439 355.108 218.392C355.126 218.321 355.141 218.25 355.157 218.178C355.169 218.122 355.18 218.064 355.19 218.007C355.2 217.95 355.208 217.874 355.217 217.807C355.226 217.74 355.233 217.68 355.238 217.615C355.238 217.565 355.238 217.515 355.244 217.463C355.251 217.304 355.248 217.144 355.236 216.985C355.236 216.95 355.236 216.914 355.228 216.879C355.218 216.788 355.204 216.698 355.188 216.608C355.181 216.571 355.175 216.534 355.168 216.497C355.148 216.404 355.125 216.312 355.097 216.22C355.088 216.189 355.079 216.161 355.069 216.131C355.036 216.031 355.001 215.931 354.959 215.836L354.949 215.813C354.793 215.461 354.576 215.138 354.308 214.861L354.3 214.852C354.211 214.761 354.117 214.674 354.019 214.593L353.956 214.541C353.855 214.459 353.749 214.383 353.64 214.312C353.614 214.295 353.587 214.279 353.562 214.263C353.443 214.189 353.32 214.116 353.186 214.05C356.337 218.065 350.413 222.099 344.003 227.605C339.866 231.159 329.991 237.023 317.255 244.237C324.255 250.715 333.644 252.404 333.631 252.048C341.381 241.558 348.46 230.588 354.824 219.204C354.872 219.104 354.916 218.994 354.957 218.883C354.972 218.846 354.983 218.802 354.996 218.768Z" fill="#123668"/>
<path fill-rule="evenodd" clip-rule="evenodd" d="M309.892 216.927C324.363 216.882 339.517 216.185 345.492 214.553C345.492 214.553 327.705 213.506 312.639 211.239C311.461 212.997 310.536 214.911 309.892 216.927Z" fill="#3C8DAA"/>
<path fill-rule="evenodd" clip-rule="evenodd" d="M335.461 249.52C335.919 248.881 336.371 248.246 336.818 247.613L336.879 247.528C337.346 246.869 337.803 246.216 338.252 245.567L338.593 245.075C339.006 244.48 339.413 243.89 339.814 243.305C339.849 243.253 339.886 243.2 339.921 243.148C340.352 242.517 340.776 241.893 341.191 241.276C341.297 241.119 341.402 240.962 341.507 240.807C341.876 240.257 342.24 239.713 342.598 239.176L342.741 238.962C343.141 238.362 343.53 237.772 343.907 237.192L344.178 236.777C344.516 236.259 344.848 235.749 345.173 235.246C345.218 235.176 345.264 235.105 345.309 235.037C345.672 234.474 346.026 233.921 346.371 233.38L346.597 233.025C346.901 232.548 347.198 232.079 347.488 231.618L347.615 231.418C347.944 230.894 348.262 230.384 348.571 229.887C348.624 229.804 348.671 229.721 348.725 229.639C349.004 229.187 349.276 228.746 349.541 228.316C349.571 228.266 349.603 228.216 349.634 228.165C349.925 227.688 350.206 227.227 350.476 226.781L350.565 226.634C350.823 226.207 351.072 225.793 351.309 225.397L351.345 225.338C351.598 224.912 351.84 224.505 352.07 224.116L352.097 224.07C352.325 223.683 352.541 223.313 352.743 222.97C348.419 230.107 339.664 240.283 328.208 250.696C329.968 251.323 331.785 251.779 333.633 252.055C334.129 251.377 334.618 250.702 335.099 250.031L335.461 249.52Z" fill="#0E2D54"/>
<path fill-rule="evenodd" clip-rule="evenodd" d="M103.974 228.543C103.483 232.157 105.121 238.259 114.174 241.565C123.227 244.871 136.374 242.212 137.793 242.212C139.212 242.212 140.784 243.156 139.839 248.351C138.894 253.546 140.471 260.669 140.471 260.669C138.916 261.697 138.374 263.725 139.21 265.391C140.469 268.654 137.951 271.791 137.951 275.258C137.951 278.725 135.905 288.309 144.719 289.258C153.533 290.207 175.411 280.882 175.096 278.15C174.78 275.418 168.424 273.787 164.913 268.621C161.402 263.455 162.576 231.677 149.086 231.19C135.595 230.703 103.974 228.543 103.974 228.543Z" fill="url(#paint0_linear)"/>
<path fill-rule="evenodd" clip-rule="evenodd" d="M111.899 145.756C111.899 145.756 104.309 143.418 97.7354 150.306C92.4104 155.884 88.0074 164.539 92.3844 167.932C96.7615 171.325 111.899 145.756 111.899 145.756Z" fill="#28BBE2"/>
<g style="mix-blend-mode:multiply" opacity="0.2">
<path fill-rule="evenodd" clip-rule="evenodd" d="M111.899 145.757C106.753 147.971 102.248 151.444 98.7988 155.857C94.7179 160.94 92.252 161.023 92.193 158.157C90.282 162.104 89.8001 165.933 92.38 167.933C96.762 171.322 111.899 145.757 111.899 145.757Z" fill="#242357"/>
</g>
<path fill-rule="evenodd" clip-rule="evenodd" d="M87.0584 177.797C84.9155 177.474 80.5315 178.609 78.1415 184.086C75.7514 189.563 74.0234 202.446 77.4764 206.963C80.9294 211.48 85.3274 210.319 85.3274 210.319L87.0584 177.797Z" fill="#28BBE2"/>
<g style="mix-blend-mode:multiply" opacity="0.2">
<path fill-rule="evenodd" clip-rule="evenodd" d="M80.447 194.099C79.547 200.275 76.386 200.299 75.54 198.59C75.5591 202.04 76.104 205.165 77.478 206.962C80.931 211.478 85.329 210.318 85.329 210.318L87.0599 177.797C87.0599 177.797 82.1931 182.143 80.447 194.099Z" fill="#242357"/>
</g>
<path fill-rule="evenodd" clip-rule="evenodd" d="M142.725 144.346C138.579 142.009 125.425 140.046 115.202 144.018C104.979 147.99 89.8328 168.267 84.1188 185.046C78.4049 201.825 83.2398 217.058 101.545 219.184C119.85 221.31 129.299 218.784 133.745 216.66C138.191 214.536 145.275 199.213 148.413 182.112C151.551 165.011 142.725 144.346 142.725 144.346Z" fill="#28BBE2"/>
<g style="mix-blend-mode:multiply" opacity="0.2">
<path fill-rule="evenodd" clip-rule="evenodd" d="M142.725 144.346C141.543 143.68 133.085 142.667 124.415 145.375C116.42 147.875 103.115 157.533 95.9597 170.948C88.8048 184.363 96.6417 210.707 95.9597 212.623C95.4237 214.123 89.7858 213.63 85.2227 210.154C88.3517 214.954 93.7107 218.274 101.544 219.184C119.85 221.309 129.298 218.784 133.744 216.66C138.19 214.536 145.274 199.213 148.412 182.112C151.55 165.011 142.725 144.346 142.725 144.346Z" fill="#242357"/>
</g>
<path opacity="0.2" fill-rule="evenodd" clip-rule="evenodd" d="M83.1404 179.216C80.7934 180.563 78.2745 183.974 77.3584 188.607C76.4424 193.24 78.5705 192.539 79.1974 190.448C79.8244 188.357 80.6805 183.554 83.0564 180.867C84.9914 178.676 84.0815 178.677 83.1404 179.216Z" fill="#F5FFFE"/>
<path opacity="0.2" fill-rule="evenodd" clip-rule="evenodd" d="M104.787 146.549C101.488 147.589 98.6573 149.751 96.7867 152.66C95.3687 155.194 96.9286 155.823 98.4866 154.125C100.045 152.427 103.079 148.574 106.129 147.44C109.179 146.306 107.484 145.757 104.787 146.549Z" fill="#F5FFFE"/>
<path opacity="0.2" fill-rule="evenodd" clip-rule="evenodd" d="M125.315 142.742C126.07 142.842 123.355 143.595 119.224 145.757C114.806 148.069 108.316 153.394 105.624 155.991C102.932 158.588 101.254 156.236 108.337 149.673C113.728 144.674 121.709 142.285 125.315 142.742Z" fill="#F5FFFE"/>
<path fill-rule="evenodd" clip-rule="evenodd" d="M167.641 161.474C168.679 163.444 172.687 176.068 169.091 182.984C165.495 189.9 161.61 185.384 161.61 185.384L165.11 162.227L167.641 161.474Z" fill="#007CB6"/>
<path fill-rule="evenodd" clip-rule="evenodd" d="M167.401 166.041C167.275 164.599 166.995 163.175 166.566 161.793L165.11 162.225L161.61 185.382C162.282 186.115 163.173 186.612 164.15 186.797C163.817 186.179 163.593 185.836 163.593 185.836C163.593 185.836 168.611 178.234 167.401 166.041Z" fill="#00629E"/>
<path fill-rule="evenodd" clip-rule="evenodd" d="M169.766 181.366C167.733 179.994 165.072 179.994 163.039 181.366C161.104 182.874 160.559 187.882 160.559 187.882L162.425 199.789C163.485 200.659 164.742 201.26 166.085 201.538C167.484 201.621 168.842 201.053 169.766 200.001C170.547 199.342 172.303 199.342 172.961 197.586C173.619 195.83 173.62 193.744 174.498 192.536C175.375 191.328 178.098 189.353 176.898 186.169C175.698 182.985 175.189 181.494 175.905 179.033C176.539 176.856 177.586 174.994 176.426 173.583C174.984 171.827 171.997 173.215 170.557 175.52C170.609 177.499 170.342 179.473 169.766 181.366Z" fill="#F8C6A3"/>
<path fill-rule="evenodd" clip-rule="evenodd" d="M170.858 188.894C170.836 188.138 167.927 187.305 165.886 185.278C163.845 183.251 165.886 179.851 168.315 180.657C166.544 180.029 164.579 180.292 163.036 181.364C161.101 182.872 160.555 187.88 160.555 187.88L162.421 199.787C163.482 200.657 164.738 201.258 166.082 201.536C167.005 201.65 167.938 201.409 168.691 200.861C167.925 201.181 167.041 200.957 166.52 200.312C165.52 199.194 166.872 196.819 167.543 195.268C168.214 193.717 164.443 192.511 166.343 189.168C167.275 187.523 170.883 189.652 170.858 188.894Z" fill="#F2A37C"/>
<path fill-rule="evenodd" clip-rule="evenodd" d="M174.573 172.798C172.889 173.046 171.411 174.048 170.557 175.52C170.609 177.499 170.342 179.473 169.765 181.367C169.765 181.367 171.814 182.69 173.283 183.718C172.745 182.911 172.366 182.009 172.168 181.06C171.543 179.076 171.594 176.94 172.313 174.988C172.761 173.998 173.569 173.215 174.573 172.798V172.798Z" fill="#F2A37C"/>
<path opacity="0.3" fill-rule="evenodd" clip-rule="evenodd" d="M175.2 178.45C174.238 180.589 175.079 183.364 175.888 185.338C176.697 187.312 176.817 189.152 174.782 192.183C175.841 190.955 177.982 189.061 176.899 186.167C175.705 182.984 175.189 181.492 175.905 179.031C176.539 176.854 177.586 174.992 176.426 173.581C176.816 174.285 176.318 175.962 175.2 178.45Z" fill="white"/>
<path fill-rule="evenodd" clip-rule="evenodd" d="M158.64 155.98C158.64 155.98 164.462 154.689 165.514 165.302C166.725 177.494 161.706 185.097 161.706 185.097C161.706 185.097 167.545 193.969 164.467 204.549C162.444 211.5 128.082 218.229 101.543 212.388C101.543 212.388 102.433 188.643 110.943 172.388C115.95 162.738 123.949 154.971 133.743 150.251L142.728 149.671C142.728 149.671 146.879 154.993 150.815 156.643C154.751 158.293 158.64 155.98 158.64 155.98Z" fill="#EFF8FC"/>
<path fill-rule="evenodd" clip-rule="evenodd" d="M130.294 214.279L142.449 204.549C142.449 204.549 127.835 207.708 119.393 206.076C110.951 204.444 108.951 195.941 111.899 192.183L109.699 187.176L105.287 187.711C103.257 195.798 102.004 204.061 101.545 212.387C110.992 214.36 120.67 214.997 130.294 214.279Z" fill="#CCE4EA"/>
<path fill-rule="evenodd" clip-rule="evenodd" d="M149.083 181.24C149.083 181.24 158.247 181.54 161.707 185.097C162.212 184.384 162.618 183.607 162.914 182.785C158.849 179.999 153.663 179.42 149.083 181.24Z" fill="#CCE4EA"/>
<path fill-rule="evenodd" clip-rule="evenodd" d="M114.077 189.839C117.832 190.786 122.767 195.672 132.717 196.324C142.667 196.976 147.196 193.909 151.829 189.839C146.211 192.051 139.992 192.199 134.275 190.258C123.459 186.528 120.375 177.287 109.293 177.036C109.117 177.036 108.949 177.045 108.777 177.049C104.99 186.236 103.161 196.707 102.295 203.849L114.077 189.839Z" fill="#CCE4EA"/>
<path fill-rule="evenodd" clip-rule="evenodd" d="M153.386 168.242C153.386 168.242 153.201 176.226 146.786 178.45C146.786 178.45 156.272 178.35 156.546 172.789C156.82 167.228 153.386 168.242 153.386 168.242Z" fill="#A9CBD3"/>
<path fill-rule="evenodd" clip-rule="evenodd" d="M149.083 159.706C149.083 159.706 149.351 167.621 154.118 168.924C159.053 170.272 155.031 159.829 154.362 159.743C153.693 159.657 149.083 159.706 149.083 159.706Z" fill="#A9CBD3"/>
<path fill-rule="evenodd" clip-rule="evenodd" d="M153.122 158.141C150.647 159.241 149.486 162.188 149.28 164.146C149.074 166.104 149.094 166.487 148.606 166.38C146.897 166.141 145.311 165.357 144.082 164.146C141.819 162.112 147.175 154.126 147.175 154.126H148.162C150.084 154.127 151.826 155.254 152.613 157.007L153.122 158.141Z" fill="#A9CBD3"/>
<path fill-rule="evenodd" clip-rule="evenodd" d="M161.147 160.337C162.479 161.844 162.377 165.019 162.479 165.681C162.58 166.343 165.845 164.041 166.086 162.796C166.326 161.551 164.398 156.152 164.398 156.152L161.147 160.337Z" fill="#A9CBD3"/>
<path fill-rule="evenodd" clip-rule="evenodd" d="M135.343 151.655L141.689 151.245C143.717 156.431 143.717 162.191 141.689 167.377C138.315 176.321 131.573 180.561 123.925 179.755L135.343 151.655Z" fill="#CCE4EA"/>
<path fill-rule="evenodd" clip-rule="evenodd" d="M133.739 150.253L140.085 149.843C142.113 155.029 142.113 160.788 140.085 165.974C136.71 174.919 129.968 179.158 122.321 178.353L133.739 150.253Z" fill="#007CB6"/>
<path fill-rule="evenodd" clip-rule="evenodd" d="M122.322 178.353C123.49 178.474 124.667 178.472 125.834 178.347C129.341 174.314 133.511 169.254 135.507 165.836C138.14 161.312 138.552 155.831 136.625 150.964C136.399 150.629 136.108 150.343 135.77 150.122L133.74 150.253L122.322 178.353Z" fill="#00629E"/>
<path fill-rule="evenodd" clip-rule="evenodd" d="M121.125 175.493C121.125 175.493 89.9021 214.276 87.5731 216.954C85.2441 219.632 84.7792 222.31 79.4221 222.194C74.0651 222.078 70.1072 223.125 65.6821 224.173C61.2571 225.221 58.1141 224.873 58.4622 222.309C58.8102 219.745 63.9352 216.487 63.9352 216.487L52.9902 212.528C54.2513 210.916 56.1825 209.972 58.2292 209.966C61.8383 209.849 67.7772 211.48 69.5243 211.48C71.2714 211.48 72.9012 210.315 76.1622 205.89C79.4232 201.465 104.34 167.931 104.34 167.931L121.125 175.493Z" fill="#F8C6A3"/>
<path fill-rule="evenodd" clip-rule="evenodd" d="M100.775 172.73C98.7513 175.455 96.0564 179.083 93.1754 182.96C95.4884 185.699 97.8644 188 98.8754 188.253C100.188 188.581 103.656 187.662 105.286 187.711C105.286 187.711 85.5323 213.971 83.0154 216.865C80.4984 219.759 75.7444 218.736 71.3934 219.986C67.0425 221.236 61.6604 225.241 58.6084 223.486C59.2974 224.95 62.0594 225.032 65.6833 224.174C70.1073 223.125 74.0674 222.074 79.4233 222.195C84.7793 222.316 85.2463 219.633 87.5743 216.955C89.3373 214.929 107.644 192.228 116.446 181.303L100.775 172.73Z" fill="#F2A37C"/>
<path fill-rule="evenodd" clip-rule="evenodd" d="M66.9802 214.851C66.9802 214.851 56.2233 212.259 55.2963 211.908C54.4862 211.602 55.2633 210.622 55.8752 210.423C54.7303 210.832 53.7284 211.564 52.9902 212.53L63.9352 216.489C64.9214 215.891 65.9377 215.344 66.9803 214.851H66.9802Z" fill="#F2A37C"/>
<path opacity="0.3" fill-rule="evenodd" clip-rule="evenodd" d="M76.1628 205.892C72.9019 210.317 71.2719 211.482 69.5249 211.482C67.778 211.482 61.8398 209.851 58.2299 209.968C57.9601 209.978 57.691 210.002 57.4238 210.04C61.1708 210.092 65.3458 211.68 67.4178 212.218C69.4899 212.756 71.4178 213.218 73.8518 210.423C76.2858 207.628 92.6368 183.689 92.6418 183.681C85.6858 193.046 77.8888 203.546 76.1628 205.892Z" fill="white"/>
<path fill-rule="evenodd" clip-rule="evenodd" d="M133.735 150.253C131.782 147.153 122.256 147.338 114.618 153.853C105.932 161.261 97.7314 169.733 97.7314 169.733C97.7314 169.733 98.8645 173.873 105.237 179.481C108.483 182.471 112.745 184.113 117.158 184.074C117.158 184.074 128.821 171.626 132.617 165.128C135.251 160.603 135.663 155.12 133.735 150.253Z" fill="#DEF1F8"/>
<path fill-rule="evenodd" clip-rule="evenodd" d="M105.242 179.479C108.488 182.469 112.75 184.111 117.162 184.072C117.162 184.072 128.824 171.624 132.621 165.125C133.925 162.912 134.699 160.427 134.883 157.865L134.872 157.811C131.762 164.978 116.872 181.533 97.7354 169.731C97.7352 169.731 98.8683 173.871 105.242 179.479Z" fill="#CCE4EA"/>
<path fill-rule="evenodd" clip-rule="evenodd" d="M130.307 149.722C125.544 149.478 120.837 150.84 116.941 153.589C113.305 156.167 110.602 159.165 116.941 159.574C123.28 159.983 129.605 155.321 131.202 153.589C132.718 151.949 133.682 150.003 130.307 149.722Z" fill="#E9F6FB"/>
<path fill-rule="evenodd" clip-rule="evenodd" d="M127.445 150.572C123.634 150.994 120.912 152.237 119.398 153.797C117.884 155.357 126.688 154.241 129.429 153.066C132.802 151.621 131.674 150.103 127.445 150.572Z" fill="#EFF8FC"/>
<path fill-rule="evenodd" clip-rule="evenodd" d="M162.022 150.314C162.022 150.314 165.346 150.075 166.898 152.202C168.224 154.02 168.938 157.365 167.641 161.474C166.221 165.974 164.255 166.04 163.841 165.958C163.427 165.876 163.887 161.358 162.299 159.746C160.711 158.134 158.638 155.98 158.638 155.98C158.638 155.98 160.201 151.302 162.022 150.314Z" fill="#DEF1F8"/>
<path fill-rule="evenodd" clip-rule="evenodd" d="M167.543 153.363C167.368 152.954 167.151 152.565 166.896 152.201C165.344 150.074 162.02 150.313 162.02 150.313C160.199 151.301 158.638 155.979 158.638 155.979C158.638 155.979 160.712 158.136 162.299 159.745C163.156 160.615 163.416 162.331 163.539 163.739C163.883 160.858 163.239 158.908 162.476 156.213C162.112 154.888 162.752 153.492 163.994 152.903C165.18 152.46 166.509 152.632 167.542 153.363H167.543Z" fill="#CCE4EA"/>
<path fill-rule="evenodd" clip-rule="evenodd" d="M166.316 154.578C164.899 153.74 164.303 156.047 164.801 158.578C165.074 160.506 165.048 162.466 164.721 164.386C164.677 165.086 165.955 164.124 166.867 161.486C167.779 158.848 168.038 155.596 166.316 154.578Z" fill="#E9F6FB"/>
<path fill-rule="evenodd" clip-rule="evenodd" d="M149.07 142.932C147.148 145.353 145.025 147.608 142.725 149.673C142.724 149.673 146.575 158.166 154.364 159.746C154.364 159.746 159.82 156.201 162.063 150.723C162.063 150.723 161.125 147.528 156.046 144.707C150.967 141.886 149.07 142.932 149.07 142.932Z" fill="#F8C6A3"/>
<path fill-rule="evenodd" clip-rule="evenodd" d="M156.041 144.706C150.963 141.885 149.07 142.931 149.07 142.931C149.07 142.931 148.77 143.342 148.084 144.146L147.652 144.646C147.652 144.646 148.842 148.546 153.928 151.413C155.934 152.57 158.135 153.35 160.422 153.713C161.068 152.776 161.617 151.775 162.06 150.726C162.06 150.726 161.119 147.527 156.041 144.706Z" fill="#F2A37C"/>
<path fill-rule="evenodd" clip-rule="evenodd" d="M156.042 144.706C150.964 141.885 149.071 142.931 149.071 142.931C149.071 142.931 148.885 143.181 148.516 143.631C152.579 148.1 157.881 149.631 162.06 150.722C162.06 150.722 161.121 147.527 156.042 144.706Z" fill="#DD8964"/>
<path fill-rule="evenodd" clip-rule="evenodd" d="M154.118 168.927C153.989 171.059 153.318 176.87 146.691 177.411C140.064 177.952 135.473 177.201 125.337 168.927C115.201 160.653 109.93 156.576 100.604 158.141C97.4945 158.896 86.9525 168.49 86.8185 170.924C86.6845 173.358 98.7114 184.303 99.9275 185.25C101.144 186.197 108.193 184.367 115.516 187.441C121.871 190.108 127.916 196.332 141.896 194.17C155.877 192.008 162.204 177.47 160.19 168.928C160.192 168.927 158.437 166.789 154.118 168.927Z" fill="#EA4D5F"/>
<path fill-rule="evenodd" clip-rule="evenodd" d="M119.392 164.197C117.48 162.706 115.453 161.368 113.33 160.197C107.049 167.144 99.3995 172.718 90.8623 176.569C93.4443 179.326 96.6383 182.326 98.4943 183.999C108.293 178.407 116.508 168.69 119.392 164.197Z" fill="#EFF8FC"/>
<path fill-rule="evenodd" clip-rule="evenodd" d="M128.721 193.585C131.503 194.358 134.387 194.698 137.273 194.595C138.861 188.807 139.241 182.753 138.389 176.811C136.881 176.355 135.425 175.744 134.044 174.986C133.73 181.514 131.908 187.88 128.721 193.585Z" fill="#EFF8FC"/>
<path fill-rule="evenodd" clip-rule="evenodd" d="M148.151 192.182C150.045 191.232 151.786 190.004 153.317 188.539C152.401 184.434 150.642 180.563 148.153 177.173C147.673 177.289 147.184 177.368 146.692 177.41C145.609 177.498 144.583 177.546 143.576 177.538C146.666 181.785 148.274 186.931 148.151 192.182Z" fill="#EFF8FC"/>
<path fill-rule="evenodd" clip-rule="evenodd" d="M120.182 189.826C125.251 183.602 127.808 176.152 128.97 171.742C127.838 170.916 126.634 169.985 125.337 168.926C124.895 168.564 124.472 168.226 124.048 167.876C120.696 176.297 114.732 182.676 110.985 186.087C112.538 186.38 114.057 186.833 115.516 187.439C117.112 188.152 118.67 188.949 120.182 189.826H120.182Z" fill="#EFF8FC"/>
<path fill-rule="evenodd" clip-rule="evenodd" d="M153.633 171.852C153.262 173.207 152.537 174.439 151.533 175.422C154.285 176.772 156.668 178.768 158.48 181.24C159.167 179.74 159.695 178.173 160.055 176.564C158.246 174.585 156.064 172.984 153.633 171.852Z" fill="#EFF8FC"/>
<g style="mix-blend-mode:multiply" opacity="0.2">
<path fill-rule="evenodd" clip-rule="evenodd" d="M154.119 168.926C154.078 171.124 153.324 173.25 151.972 174.983V174.983C153.379 173.694 154.381 172.023 154.856 170.174C154.856 170.174 159.039 171.506 160.192 168.923L157.121 168.004C156.072 168.123 155.054 168.435 154.119 168.926Z" fill="#242357"/>
</g>
<path fill-rule="evenodd" clip-rule="evenodd" d="M154.107 156.435C155.412 155.89 159.033 155.235 160.771 157.049C162.509 158.863 162.909 161.032 162.022 164.219C161.614 165.86 160.999 167.442 160.192 168.927C158.315 170.024 155.994 170.024 154.118 168.927C151.535 166.627 150.057 163.334 150.056 159.876C151.062 158.377 152.464 157.186 154.107 156.435Z" fill="#EA4D5F"/>
<path fill-rule="evenodd" clip-rule="evenodd" d="M160.584 168.173C158.051 164.753 154.357 162.374 150.194 161.483C150.342 162.516 150.613 163.527 151.002 164.495C153.817 165.638 156.346 167.386 158.41 169.614C159.041 169.498 159.645 169.264 160.19 168.926C160.19 168.926 160.346 168.669 160.584 168.173Z" fill="#EFF8FC"/>
<path fill-rule="evenodd" clip-rule="evenodd" d="M155.117 156.12C154.773 156.198 154.435 156.303 154.107 156.434C153.257 156.842 152.462 157.357 151.742 157.965C155.742 158.893 159.345 161.063 162.035 164.165C162.39 163.009 162.529 161.798 162.446 160.591C160.402 158.528 157.887 156.993 155.117 156.12Z" fill="#EFF8FC"/>
<g style="mix-blend-mode:multiply" opacity="0.2">
<path fill-rule="evenodd" clip-rule="evenodd" d="M153.122 164.146C152.452 160.276 153.835 156.731 155.746 155.994C155.185 156.082 154.635 156.23 154.107 156.435C152.464 157.186 151.062 158.377 150.056 159.876C150.057 163.333 151.534 166.626 154.116 168.926C155.035 169.419 156.055 169.693 157.097 169.727C155.337 169.057 153.732 167.669 153.122 164.146Z" fill="#242357"/>
</g>
<g style="mix-blend-mode:multiply" opacity="0.2">
<path fill-rule="evenodd" clip-rule="evenodd" d="M140.917 191.571C128.717 191.304 124.93 186.971 115.467 182.756C110.884 180.716 103.391 181.195 101.543 180.348C99.2434 179.293 89.8045 171.211 89.5094 170.354C88.9944 168.854 95.4035 161.474 95.4035 161.474C91.4135 164.714 86.9085 169.338 86.8214 170.923C86.6864 173.355 98.7144 184.302 99.9305 185.249C101.147 186.196 108.195 184.366 115.518 187.44C121.873 190.107 127.918 196.331 141.899 194.169C147.73 193.265 152.927 189.991 156.259 185.122C153.307 188.547 149.482 191.759 140.917 191.571Z" fill="#242357"/>
</g>
<path opacity="0.15" fill-rule="evenodd" clip-rule="evenodd" d="M109.684 160.003C107.046 159.201 104.27 158.952 101.531 159.272C99.9429 159.56 97.0909 162.212 95.3739 164.326C92.4009 167.984 99.7818 164.116 110.146 168.436C120.51 172.756 133.851 179.75 136.51 178.891C139.169 178.032 131.405 175.196 125.31 170.291C120.242 166.197 114.022 161.323 109.684 160.003Z" fill="white"/>
<path opacity="0.15" fill-rule="evenodd" clip-rule="evenodd" d="M160.192 157.454C158.417 156.289 157.673 159.425 157.852 162.795C158.031 166.165 158.421 168.809 159.389 168.395C160.357 167.981 161.933 163.81 161.817 161.485C161.701 159.16 161.079 158.038 160.192 157.454Z" fill="white"/>
<path fill-rule="evenodd" clip-rule="evenodd" d="M147.378 144.958C146.352 144.135 145.014 143.81 143.725 144.071C141.268 144.388 134.215 149.301 133.74 150.253C133.265 151.205 133.398 155.306 138.34 161.031C141.091 164.221 145.79 166.183 147.058 166.579C148.326 166.975 147.586 159.479 154.112 156.435C154.112 156.435 154.461 155.019 151.312 153.67C149.012 152.688 145.754 149.67 145.596 146.883L147.378 144.958Z" fill="#DEF1F8"/>
<path fill-rule="evenodd" clip-rule="evenodd" d="M145.587 146.883L147.378 144.958C146.352 144.135 145.014 143.81 143.725 144.071C141.268 144.388 134.215 149.301 133.74 150.253C133.265 151.205 133.398 155.306 138.34 161.031C135.589 157.098 135.949 151.345 138.122 149.673C140.295 148.001 143.473 145.441 144.564 148.226C145.655 151.011 150.064 152.992 150.064 152.993C147.978 151.656 145.718 149.199 145.587 146.883Z" fill="#CCE4EA"/>
<path fill-rule="evenodd" clip-rule="evenodd" d="M150.425 155.033C151.557 154.399 154.238 155.176 152.267 156.482C149.332 158.428 147.473 163.371 147.127 164.371C146.781 165.371 144.448 164.489 142.572 163.31C140.696 162.131 139.23 160.868 138.831 159.599C138.659 159.049 142.805 161.785 145.225 159.746C147.645 157.707 148.149 156.309 150.425 155.033Z" fill="#E9F6FB"/>
<path fill-rule="evenodd" clip-rule="evenodd" d="M134.064 131.086C133.014 135.655 134.743 138.434 135.916 139.607C137.089 140.78 139.498 141.521 140.3 138.989C141.213 141.031 143.017 142.537 145.188 143.071C148.832 143.936 150.056 141.336 150.056 141.336L144.19 132.322L134.064 131.086Z" fill="#D65132"/>
<path fill-rule="evenodd" clip-rule="evenodd" d="M134.065 131.086C133.782 132.264 133.687 133.479 133.782 134.686C135.988 136.718 139.224 137.165 141.899 135.809C141.899 135.809 143.58 141.334 148.571 142.779C149.198 142.454 149.715 141.952 150.057 141.334L144.191 132.32L134.065 131.086Z" fill="#BA422B"/>
<path fill-rule="evenodd" clip-rule="evenodd" d="M174.012 96.0571C181.941 96.0571 191.658 101.641 193.892 110.357C196.126 119.073 195.455 126.328 196.572 131.357C197.272 134.498 197.791 138.341 196.344 141.688C196.078 142.305 195.773 142.905 195.43 143.483C193.06 147.483 188.58 150.341 182.279 151.824C175.029 153.357 167.492 152.781 160.558 150.165C151.958 146.591 146.202 142.637 142.516 133.032C138.394 121.818 142.449 109.238 152.344 102.542C163.402 95.0511 174.012 96.0571 174.012 96.0571Z" fill="#F8C6A3"/>
<path fill-rule="evenodd" clip-rule="evenodd" d="M144.326 123.371C144.494 124.895 145.886 126.339 148.582 125.344C151.278 124.349 156.308 119.714 157.282 107.438L144.326 123.371Z" fill="#F2A37C"/>
<path fill-rule="evenodd" clip-rule="evenodd" d="M174.012 96.057C170.622 95.9016 167.23 96.2949 163.967 97.222C160.74 99.222 157.852 100.922 157.852 100.922C161.599 108.98 169.726 113.937 174.874 115.047C180.021 116.157 186.188 116.147 188.474 112.995C190.619 110.036 187.333 106.987 187.333 106.987C189.175 108.231 191.304 108.984 193.519 109.176C190.749 101.145 181.578 96.057 174.012 96.057Z" fill="#F2A37C"/>
<circle opacity="0.5" cx="158.529" cy="132.377" r="8.771" fill="#EE9681"/>
<path opacity="0.5" fill-rule="evenodd" clip-rule="evenodd" d="M188.494 132.615C188.494 137.146 191.948 140.931 196.461 141.346C197.738 138.078 197.246 134.388 196.571 131.346C196.127 128.913 195.859 126.45 195.771 123.978C191.567 124.703 188.495 128.349 188.494 132.615H188.494Z" fill="#EE9681"/>
<path fill-rule="evenodd" clip-rule="evenodd" d="M196.247 129.515C194.898 130.556 193.243 131.122 191.539 131.128C187.057 131.128 183.407 127.228 183.31 122.398C183.216 122.364 183.125 122.322 183.037 122.274C182.807 122.14 182.583 121.996 182.36 121.853C182.36 121.97 182.343 122.085 182.343 122.203C182.343 122.261 182.351 122.318 182.352 122.375C182.034 122.245 181.69 122.186 181.346 122.203C180.469 122.182 179.601 122.394 178.832 122.819C178.843 122.619 178.864 122.412 178.864 122.203V122.172C178.726 122.3 178.597 122.438 178.479 122.585C178.325 122.798 178.111 122.962 177.864 123.055C177.402 128.57 172.675 132.741 167.145 132.513C161.615 132.285 157.248 127.738 157.243 122.203C157.242 121.917 157.261 121.634 157.285 121.353C157.156 121.293 157.034 121.219 156.922 121.131L156.392 120.72C156.372 120.876 156.358 121.033 156.342 121.19L141.613 118.99L142.384 123.236L156.374 123.571C157.039 129.035 161.549 133.222 167.048 133.479C172.546 133.736 177.428 129.988 178.599 124.61C179.463 124.171 180.419 123.942 181.388 123.943C181.776 123.934 182.161 124 182.524 124.135C183.223 128.61 187.013 131.951 191.54 132.085C193.281 132.081 194.98 131.554 196.416 130.571L196.247 129.515Z" fill="#F2A37C"/>
<path fill-rule="evenodd" clip-rule="evenodd" d="M196.248 129.515C194.898 130.555 193.244 131.122 191.54 131.128C190.58 131.125 189.63 130.941 188.74 130.585C188.664 130.902 188.606 131.223 188.566 131.547C189.518 131.901 190.525 132.083 191.541 132.085C193.281 132.081 194.98 131.554 196.417 130.571L196.303 129.864C196.292 129.786 196.277 129.711 196.266 129.632L196.248 129.515Z" fill="#EB7C74"/>
<path opacity="0.3" fill-rule="evenodd" clip-rule="evenodd" d="M196.03 133.278C196.641 137.836 196.4 141.903 191.821 146.055C186.466 150.91 176.666 152.828 170.232 152.443C174.255 152.885 178.324 152.674 182.279 151.817C188.579 150.334 193.059 147.472 195.43 143.476C195.773 142.898 196.078 142.298 196.344 141.681C197.791 138.333 197.27 134.491 196.572 131.35C196.182 129.312 195.94 127.248 195.849 125.175L195.694 125.064C195.939 126.454 195.417 128.72 196.03 133.278Z" fill="white"/>
<path fill-rule="evenodd" clip-rule="evenodd" d="M167.223 133.475C167.263 133.158 167.286 132.839 167.292 132.52C162.277 132.378 158.089 128.655 157.36 123.691C157.045 123.734 156.733 123.793 156.425 123.869C157.234 129.257 161.777 133.299 167.223 133.475Z" fill="#EB7C74"/>
<path opacity="0.3" fill-rule="evenodd" clip-rule="evenodd" d="M157.473 124.907C157.473 125.907 156.202 126.707 154.635 126.707C153.068 126.707 151.797 125.9 151.797 124.907C151.797 123.914 153.068 123.107 154.635 123.107C156.202 123.107 157.473 123.912 157.473 124.907Z" fill="white"/>
<g style="mix-blend-mode:multiply" opacity="0.7">
<path fill-rule="evenodd" clip-rule="evenodd" d="M166.899 130.287C171.356 130.287 175.835 126.998 176.514 120.654C177.193 114.31 172.555 108.202 164.778 110.512C157.001 112.822 156.829 122.074 159.178 125.672C160.817 128.405 163.715 130.137 166.899 130.287Z" fill="url(#paint1_linear)"/>
</g>
<g style="mix-blend-mode:multiply" opacity="0.7">
<path fill-rule="evenodd" clip-rule="evenodd" d="M193.91 110.448C192.104 109.868 190.16 109.876 188.359 110.471C181.219 112.586 181.064 121.082 183.221 124.383C184.725 126.893 187.386 128.483 190.309 128.619C192.387 128.614 194.39 127.843 195.936 126.454C195.603 122.03 195.48 116.602 193.91 110.448Z" fill="url(#paint2_linear)"/>
</g>
<path fill-rule="evenodd" clip-rule="evenodd" d="M141.613 118.113C143.061 119.527 144.013 121.371 144.327 123.371C144.621 125.435 147.919 126.256 152.373 119.976C158.529 111.298 157.852 100.923 157.852 100.923C161.884 105.184 166.623 108.715 171.859 111.361C180.014 115.291 184.828 114.24 187.186 113.243C189.544 112.246 191.214 109.396 189.052 105.859C189.052 105.859 193.08 109.003 200.841 108.708C208.602 108.413 211.746 104.68 209.584 101.831C207.422 98.9821 203.272 96.752 197.266 94.9401C197.266 94.9401 204.181 94.366 203.789 90.535C203.397 86.704 193.617 77.35 174.946 79.9351C153.967 82.8351 150.803 93.5601 150.803 93.5601C150.803 93.5601 147.917 91.8781 141.613 91.9271C137.162 91.962 134.232 93.746 133.937 94.752C133.642 95.7581 134.286 96.3391 136.317 97.116C137.887 97.6833 139.423 98.3407 140.917 99.085C137.253 100.248 133.872 102.16 130.988 104.7C125.978 109.022 126.041 112.984 126.567 113.541C127.554 114.587 130.134 112.124 133.867 111.632C133.867 111.632 131.282 117.455 131.967 122.464C132.652 127.473 141.613 118.113 141.613 118.113Z" fill="#E26644"/>
<path fill-rule="evenodd" clip-rule="evenodd" d="M163.117 93.832C160.717 94.246 159.009 96.239 162.302 97.416C165.595 98.593 176.017 102.969 180.934 106.954C186.148 111.181 190.259 112.004 188.975 107.937C187.15 103.14 183.69 99.1414 179.204 96.648C174.317 93.9091 168.643 92.9159 163.117 93.832H163.117Z" fill="#EE7249"/>
<path fill-rule="evenodd" clip-rule="evenodd" d="M184.032 114.061C178.586 113.715 168.347 109.086 158.361 96.974C158.222 96.8065 157.99 96.7506 157.79 96.8367C157.591 96.9229 157.472 97.1303 157.499 97.346C157.623 98.301 157.763 99.562 157.851 100.924C161.884 105.185 166.622 108.716 171.858 111.363C177.336 114.002 181.3 114.387 184.032 114.061Z" fill="#D65132"/>
<path fill-rule="evenodd" clip-rule="evenodd" d="M163.478 82.811C152.724 87.059 150.803 93.559 150.803 93.559C150.803 93.559 147.917 91.877 141.613 91.926C137.162 91.96 134.232 93.7451 133.937 94.751C133.642 95.757 134.286 96.338 136.317 97.1151C137.887 97.6823 139.422 98.3397 140.917 99.084C137.253 100.247 133.872 102.159 130.988 104.699C125.978 109.021 126.041 112.983 126.567 113.54C127.554 114.586 130.134 112.123 133.867 111.631C133.867 111.631 131.282 117.454 131.967 122.463C132.652 127.472 141.608 118.113 141.608 118.113C142.44 118.951 143.12 119.927 143.618 120.998C144.151 120.018 144.546 119.053 144.181 118.498C142.299 115.625 141.603 111.376 143.381 105.978C144.373 102.417 146.887 99.4767 150.251 97.944C151.591 97.2985 153.064 96.9775 154.551 97.007C154.714 97.0111 154.868 96.9296 154.957 96.7921C155.017 96.6393 155.008 96.4683 154.934 96.3221C154.37 94.5923 154.357 92.7303 154.898 90.993C155.856 88.119 157.89 85.653 163.478 82.811Z" fill="#D65132"/>
<path fill-rule="evenodd" clip-rule="evenodd" d="M143.771 121.339C144.038 121.991 144.225 122.674 144.326 123.371C144.489 124.508 145.606 125.287 147.294 124.701C146.769 124.861 146.199 124.721 145.809 124.336C145.639 124.024 145.572 123.666 145.616 123.314L149.417 123.405H149.423C149.978 122.929 150.493 122.408 150.962 121.846L147.572 121.608L143.771 121.339Z" fill="#D65132"/>
<path fill-rule="evenodd" clip-rule="evenodd" d="M200.84 108.708C205.921 108.516 209.008 106.847 209.94 104.919C205.685 108.419 195.749 105.841 191.54 103.862C189.362 102.783 187.246 101.581 185.204 100.262C186.838 101.861 188.145 103.763 189.051 105.862C189.051 105.862 193.079 109.003 200.84 108.708Z" fill="#D65132"/>
<path fill-rule="evenodd" clip-rule="evenodd" d="M203.787 90.5341C203.603 89.5352 203.14 88.6089 202.45 87.863C204.723 91.163 200.725 92.0811 197.939 92.639C195.153 93.197 187.691 93.6151 187.691 93.6151C187.691 93.6151 195.01 94.522 197.265 94.939C197.266 94.939 204.18 94.366 203.787 90.5341Z" fill="#D65132"/>
<path fill-rule="evenodd" clip-rule="evenodd" d="M138.245 95.397C135.471 94.6871 135.483 93.3381 136.814 92.738C135.134 93.3491 134.104 94.1761 133.935 94.751C133.64 95.7581 134.284 96.3381 136.315 97.1151C137.885 97.6823 139.421 98.3397 140.915 99.084C142.292 98.6793 143.702 98.3972 145.128 98.241C142.922 97.092 140.619 96.1403 138.245 95.397Z" fill="#BA422B"/>
<path fill-rule="evenodd" clip-rule="evenodd" d="M129.981 110.44C127.681 111.566 126.35 112.193 126.536 111.085C126.221 111.875 126.232 112.758 126.567 113.539C127.555 114.585 130.134 112.122 133.868 111.63C134.397 110.231 135.141 108.923 136.073 107.752C133.993 108.533 131.96 109.431 129.981 110.44H129.981Z" fill="#BA422B"/>
<path fill-rule="evenodd" clip-rule="evenodd" d="M189.341 81.63C181.833 79.494 166.191 80.7 159.601 86.795C157.449 88.785 163.156 87.5161 170.373 87.6221C177.16 87.8405 183.915 88.6395 190.565 90.0101C197.799 91.61 202.592 91.17 202.088 89.3201C201.584 87.47 196.631 83.7 189.341 81.63Z" fill="#EE7249"/>
<path fill-rule="evenodd" clip-rule="evenodd" d="M209.43 104.152C210.038 102.619 206.857 99.2971 202.125 97.4631C197.393 95.6291 190.566 94.3631 189.042 94.9401C187.35 95.5841 192.535 102.682 200.198 104.964C206.843 106.942 208.913 105.448 209.43 104.152Z" fill="#EE7249"/>
<path fill-rule="evenodd" clip-rule="evenodd" d="M156.01 100.752C155.01 99.3961 151.264 100.906 149.004 104.775C146.117 109.717 147.204 117.403 149.226 118.112C151.248 118.821 154.135 114.043 155.184 110.012C156.233 105.981 156.887 101.942 156.01 100.752Z" fill="#EE7249"/>
<path fill-rule="evenodd" clip-rule="evenodd" d="M137.582 93.192C136.56 93.509 137.31 94.7141 139.068 94.747C140.843 94.781 147.601 94.4011 147.512 93.767C147.423 93.133 142.031 91.809 137.582 93.192Z" fill="#E26644"/>
<path fill-rule="evenodd" clip-rule="evenodd" d="M127.679 110.44C127.937 110.752 129.338 110.263 130.647 108.978C131.956 107.693 135.752 103.335 136.074 102.778C136.396 102.221 133.393 103.256 130.647 105.861C127.901 108.466 127.403 110.107 127.679 110.44Z" fill="#E26644"/>
<path fill-rule="evenodd" clip-rule="evenodd" d="M195.677 96.313C198.508 97.013 205.101 98.278 208.9 102.951C207.192 101.477 205.261 100.284 203.18 99.414C200.737 98.2452 198.232 97.2101 195.677 96.313H195.677Z" fill="#F49A6E"/>
<path fill-rule="evenodd" clip-rule="evenodd" d="M168.639 82.8111C171.955 81.4841 184.662 80.7901 190.763 82.8111C197.973 85.1981 200.363 88.2811 200.363 88.2811C196.353 86.3477 192.086 85.0007 187.694 84.2811C189.915 84.3708 192.124 84.661 194.294 85.1481C194.294 85.148 190.194 82.5481 182.008 82.1481C177.541 81.8618 173.056 82.0842 168.639 82.8111H168.639Z" fill="#F49A6E"/>
<path fill-rule="evenodd" clip-rule="evenodd" d="M178.231 96.795C182.168 98.303 187.062 103.59 188.29 107.232C186.996 105.14 185.47 103.201 183.741 101.452C182.025 99.7634 180.183 98.2067 178.231 96.7951V96.795Z" fill="#F49A6E"/>
<path fill-rule="evenodd" clip-rule="evenodd" d="M155.657 102.408C155.709 104.316 154.921 112.138 150.802 117.071C150.358 115.218 150.358 113.285 150.802 111.432C150.868 112.611 151.026 113.784 151.273 114.939C151.272 114.939 154.162 111.33 155.657 102.408Z" fill="#F49A6E"/>
<g style="mix-blend-mode:multiply" opacity="0.5">
<path fill-rule="evenodd" clip-rule="evenodd" d="M170.319 109.427C170.189 108.209 167.606 107.037 163.925 109.104C160.244 111.171 158.951 114.404 159.21 115.369C159.469 116.334 162.81 114.929 165.152 114.013C169.092 112.469 170.705 113.044 170.319 109.427Z" fill="#F2A37C"/>
</g>
<g style="mix-blend-mode:multiply" opacity="0.5">
<path fill-rule="evenodd" clip-rule="evenodd" d="M195.007 116.012C194.844 114.883 194.642 113.723 194.392 112.532C193.561 111.358 192.468 110.393 191.201 109.713C187.518 107.645 186.138 109.435 186.122 110.661C186.086 113.432 188.522 113.823 190.822 114.613C192.733 115.268 194.318 116.176 195.007 116.012Z" fill="#F2A37C"/>
</g>
<path fill-rule="evenodd" clip-rule="evenodd" d="M170.762 107.974C170.595 106.48 167.605 105.707 163.923 107.774C160.241 109.841 158.949 113.074 159.208 114.04C159.467 115.006 162.808 113.599 165.15 112.683C169.092 111.14 171.109 111.082 170.762 107.974Z" fill="#D65132"/>
<path fill-rule="evenodd" clip-rule="evenodd" d="M166.548 110.44C163.148 111.546 161.248 112.003 161.406 110.764C161.564 109.525 163.395 108.053 163.923 107.774C160.241 109.842 158.949 113.074 159.208 114.04C159.467 115.006 162.808 113.599 165.15 112.683C169.092 111.14 171.109 111.083 170.762 107.974C170.587 108.762 169.95 109.334 166.548 110.44Z" fill="#BA422B"/>
<path fill-rule="evenodd" clip-rule="evenodd" d="M186.127 109.33C186.142 108.104 187.527 106.315 191.205 108.382C194.883 110.449 195.619 113.397 195.361 114.366C195.102 115.335 193.204 114.097 190.826 113.282C188.518 112.493 186.086 112.102 186.127 109.33Z" fill="#D65132"/>
<path fill-rule="evenodd" clip-rule="evenodd" d="M193.945 113.265C192.918 112.644 190.09 111.565 188.362 110.472C186.654 109.39 187.154 107.734 188.519 107.453C187.945 107.339 187.35 107.48 186.888 107.841C186.427 108.202 186.146 108.746 186.12 109.331C186.083 112.102 188.519 112.494 190.819 113.283C193.196 114.098 195.094 115.335 195.353 114.367C195.447 113.695 195.339 113.01 195.043 112.399C195.342 113.025 194.971 113.885 193.945 113.265Z" fill="#BA422B"/>
<path fill-rule="evenodd" clip-rule="evenodd" d="M191.54 131.208C186.469 131.208 182.34 126.774 182.34 121.324C182.34 115.874 186.465 111.44 191.54 111.44C196.615 111.44 200.74 115.874 200.74 121.324C200.74 126.774 196.611 131.208 191.54 131.208ZM191.54 112.398C186.998 112.398 183.301 116.398 183.301 121.324C183.301 126.25 187.001 130.25 191.54 130.25C196.079 130.25 199.779 126.25 199.779 121.324C199.779 116.398 196.083 112.398 191.54 112.398Z" fill="#19313A"/>
<ellipse cx="166.899" cy="123.169" rx="7.11961" ry="7.1196" fill="white"/>
<path opacity="0.2" fill-rule="evenodd" clip-rule="evenodd" d="M164.002 127.48C161.469 124.786 161.101 120.712 163.11 117.607L162.858 117.307C160.382 119.017 159.25 122.1 160.03 125.006C160.81 127.912 163.333 130.014 166.333 130.255C169.332 130.496 172.159 128.824 173.393 126.08C171.378 128.753 166.166 129.444 164.002 127.48Z" fill="#BAC4CA"/>
<path fill-rule="evenodd" clip-rule="evenodd" d="M159.877 124.337C159.877 124.337 160.107 119.293 164.162 117.631C168.728 115.76 172.662 118.211 173.471 120.45C173.551 119.815 173.39 119.172 173.02 118.65C171.848 116.85 168.963 114.631 164.397 116.156C160.892 117.17 158.87 120.83 159.877 124.337Z" fill="#19313A"/>
<path fill-rule="evenodd" clip-rule="evenodd" d="M174.017 123.169C174.018 122.475 173.917 121.784 173.717 121.12C173.396 120.031 172.552 119.175 171.467 118.84C170.099 118.394 168.598 118.698 167.511 119.64C165.397 121.666 164.911 124.862 166.327 127.425C166.836 128.16 167.553 128.725 168.386 129.049C169.611 129.476 170.972 129.162 171.886 128.242C173.251 126.907 174.02 125.078 174.017 123.169Z" fill="#19313A"/>
<path fill-rule="evenodd" clip-rule="evenodd" d="M167.542 128.603C167.805 128.784 168.087 128.934 168.384 129.05C169.609 129.477 170.97 129.163 171.884 128.243C172.513 127.623 173.022 126.892 173.384 126.086C171.903 127.746 169.765 128.667 167.542 128.603Z" fill="#002030"/>
<path fill-rule="evenodd" clip-rule="evenodd" d="M172.641 119.976C172.185 119.508 171.498 119.348 170.881 119.564C170.264 119.781 169.829 120.336 169.765 120.986C169.497 122.857 170.77 124.908 172.32 124.908C173.344 124.908 173.82 123.934 173.68 122.475C173.651 121.543 173.281 120.654 172.641 119.976Z" fill="white"/>
<path fill-rule="evenodd" clip-rule="evenodd" d="M183.168 122.492C183.131 122.195 182.985 121.922 182.758 121.727C182.351 121.427 181.85 121.284 181.347 121.327C180.415 121.299 179.494 121.538 178.694 122.015C178.354 122.217 178.124 122.562 178.069 122.953L177.894 124.165C178.913 123.439 180.137 123.054 181.389 123.065C183.046 123.065 183.397 123.978 183.397 123.978L183.168 122.492Z" fill="#19313A"/>
<path fill-rule="evenodd" clip-rule="evenodd" d="M181.347 121.324C180.415 121.296 179.494 121.534 178.693 122.012C178.354 122.214 178.125 122.559 178.069 122.95L177.894 124.162C178.913 123.436 180.137 123.051 181.389 123.062C183.046 123.062 183.397 123.975 183.397 123.975C182.807 122.152 180.091 122.808 179.983 122.357C179.875 121.906 180.316 121.412 181.347 121.324Z" fill="#002030"/>
<path fill-rule="evenodd" clip-rule="evenodd" d="M157.029 120.413L141.612 118.113L142.383 122.359L156.761 122.703C156.761 122.703 156.986 121.344 157.029 120.413Z" fill="#19313A"/>
<path fill-rule="evenodd" clip-rule="evenodd" d="M156.838 122.201L145.088 120.612C144.948 119.849 144.64 119.127 144.188 118.496L141.615 118.113L142.386 122.359L156.764 122.703C156.764 122.703 156.795 122.501 156.838 122.201Z" fill="#002030"/>
<path fill-rule="evenodd" clip-rule="evenodd" d="M180.194 125.473C179.432 125.834 178.71 128.33 179.362 130.473C179.827 132.125 181.331 133.268 183.048 133.273C184.802 133.333 185.756 132.313 185.71 131.024C185.673 129.897 184.319 129.876 183.048 128.324C181.87 126.895 181.621 124.798 180.194 125.473Z" fill="#EE9681"/>
<path fill-rule="evenodd" clip-rule="evenodd" d="M182.582 132.135C180.316 131.717 179.135 129.052 179.222 127.483C179.037 128.477 179.085 129.5 179.363 130.471C179.827 132.123 181.332 133.266 183.048 133.271C184.802 133.33 185.756 132.311 185.711 131.022C185.414 131.905 184.456 132.481 182.582 132.135Z" fill="#EB7C74"/>
<path fill-rule="evenodd" clip-rule="evenodd" d="M184.736 130.977C184.69 130.976 184.643 130.971 184.597 130.963C184.456 130.938 184.32 130.887 184.197 130.813C183.862 130.61 183.61 130.294 183.486 129.922C183.435 129.78 183.299 129.331 183.607 129.408C183.672 129.429 183.73 129.463 183.78 129.508C183.925 129.624 184.08 129.728 184.221 129.838C184.482 130.038 184.812 130.151 185.058 130.355C185.15 130.424 185.204 130.532 185.206 130.646C185.192 130.777 185.105 130.89 184.981 130.936C184.904 130.967 184.82 130.981 184.736 130.977Z" fill="#F8C6A3"/>
<path fill-rule="evenodd" clip-rule="evenodd" d="M167.573 132.615C161.337 132.615 156.282 127.56 156.282 121.324C156.282 115.088 161.337 110.033 167.573 110.033C173.809 110.033 178.864 115.088 178.864 121.324C178.859 127.559 173.806 132.611 167.572 132.615H167.573ZM167.573 110.99C163.393 110.99 159.625 113.507 158.025 117.369C156.425 121.23 157.309 125.675 160.265 128.631C163.22 131.587 167.665 132.471 171.527 130.872C175.388 129.272 177.906 125.504 177.906 121.324C177.9 115.619 173.277 110.996 167.572 110.99H167.573Z" fill="#19313A"/>
<path fill-rule="evenodd" clip-rule="evenodd" d="M177.1 139.494C174.281 139.106 171.563 138.182 169.092 136.771C166.718 135.517 164.902 135.335 164.482 137.171C163.873 139.82 166.47 146.571 175.182 147.88C180.758 148.718 184.808 147.092 187.063 145.263C188.206 144.375 189.062 143.169 189.524 141.797C190.024 140.197 189.396 138.284 185.467 139.043C182.717 139.621 179.896 139.773 177.1 139.494Z" fill="#C9434D"/>
<path fill-rule="evenodd" clip-rule="evenodd" d="M175.9 139.329C173.518 138.813 171.224 137.951 169.092 136.771C166.718 135.517 164.902 135.335 164.482 137.171C163.989 139.317 165.602 144.155 170.868 146.611C173.888 145.526 175.903 142.663 175.906 139.453C175.906 139.409 175.9 139.37 175.9 139.329Z" fill="#7C1423"/>
<path fill-rule="evenodd" clip-rule="evenodd" d="M184.033 139.293C181.74 139.656 179.411 139.723 177.102 139.493C174.532 139.157 172.046 138.351 169.769 137.115H169.769C169.82 138.081 170.06 139.028 170.476 139.902C171.14 140.883 174.319 142.102 176.112 142.357C179.612 142.857 182.363 141.964 182.667 141.626C183.183 140.886 183.64 140.106 184.033 139.293Z" fill="white"/>
<path opacity="0.2" fill-rule="evenodd" clip-rule="evenodd" d="M174.84 139.814C177.768 140.509 180.816 140.519 183.749 139.845C183.916 139.527 184.033 139.293 184.033 139.293C181.74 139.656 179.411 139.723 177.102 139.493C174.532 139.157 172.046 138.351 169.769 137.115H169.769C169.82 138.081 170.06 139.028 170.476 139.902C170.934 140.579 172.591 141.368 174.162 141.877C172.898 141.432 171.867 140.494 171.306 139.277C171.152 138.55 172.034 139.092 174.84 139.814Z" fill="#BAC4CA"/>
<path fill-rule="evenodd" clip-rule="evenodd" d="M180.727 147.908C179.974 146.279 175.51 142.108 166.527 143.246C168.716 145.841 171.817 147.497 175.19 147.875C177.024 148.165 178.891 148.176 180.727 147.908Z" fill="#EC6469"/>
<path fill-rule="evenodd" clip-rule="evenodd" d="M179.459 148.052C179.451 148.052 174.407 147.741 171.99 146.132C169.59 144.532 170.156 143.091 172.252 143.246C170.351 142.99 168.425 142.99 166.523 143.246C168.712 145.841 171.813 147.497 175.186 147.875C176.6 148.094 178.033 148.153 179.459 148.052Z" fill="#DB545B"/>
<path opacity="0.2" fill-rule="evenodd" clip-rule="evenodd" d="M176.623 144.975C175.304 144.237 173.832 143.816 172.322 143.748C170.238 143.959 174.413 145.634 176.229 146.294C178.557 147.141 178.829 146.12 176.623 144.975Z" fill="white"/>
<path opacity="0.2" fill-rule="evenodd" clip-rule="evenodd" d="M179.341 146.775C178.988 146.537 178.517 146.548 178.517 146.836C178.517 147.05 178.789 147.406 179.341 147.577C179.893 147.748 179.91 147.157 179.341 146.775Z" fill="white"/>
<path fill-rule="evenodd" clip-rule="evenodd" d="M194.767 126.607C196.32 124.907 196.206 119.136 194.014 117.433C191.356 115.398 187.563 115.836 185.44 118.425C183.317 121.013 183.629 124.819 186.146 127.027C188.662 129.234 192.476 129.049 194.767 126.607Z" fill="white"/>
<path opacity="0.2" fill-rule="evenodd" clip-rule="evenodd" d="M194.766 126.607C195.271 125.945 195.585 125.157 195.676 124.33C194.376 126.851 191.276 128.286 188.565 126.483C185.208 124.248 185.64 119.071 186.994 117.083C184.947 118.351 183.819 120.689 184.101 123.08C184.383 125.471 186.024 127.483 188.31 128.24C190.596 128.997 193.113 128.362 194.766 126.611V126.607Z" fill="#BAC4CA"/>
<path fill-rule="evenodd" clip-rule="evenodd" d="M184.177 123.654C184.177 123.654 183.991 119.002 187.731 117.469C189.741 116.577 192.05 116.66 193.99 117.694C194.473 117.975 194.859 118.397 195.096 118.904C195.045 118.032 194.617 117.226 193.924 116.695C192.619 115.717 190.701 115.159 187.948 116.104C182.425 118.007 184.177 123.654 184.177 123.654Z" fill="#19313A"/>
<path fill-rule="evenodd" clip-rule="evenodd" d="M194.145 118.568C192.975 118.22 191.708 118.489 190.779 119.282C188.936 121.05 188.512 123.837 189.748 126.072C190.565 127.303 192.041 127.923 193.491 127.645C194.622 127.222 195.454 126.246 195.691 125.062C196.238 123.309 196.135 121.417 195.402 119.733C195.166 119.185 194.71 118.762 194.145 118.568Z" fill="#19313A"/>
<path fill-rule="evenodd" clip-rule="evenodd" d="M195.692 125.063C195.827 124.609 195.92 124.143 195.97 123.672C195.252 125.77 193.313 127.207 191.097 127.282C191.827 127.681 192.674 127.81 193.49 127.646C194.621 127.224 195.454 126.247 195.692 125.063Z" fill="#002030"/>
<path fill-rule="evenodd" clip-rule="evenodd" d="M194.759 119.376C194.36 118.966 193.759 118.825 193.219 119.015C192.679 119.205 192.298 119.691 192.243 120.261C192.008 121.898 193.123 123.691 194.478 123.691C195.378 123.691 195.792 122.84 195.667 121.562C195.642 120.747 195.319 119.969 194.759 119.376Z" fill="white"/>
<path fill-rule="evenodd" clip-rule="evenodd" d="M141.61 118.114C139.696 116.953 135.01 116.154 131.948 119.155C128.886 122.156 129.108 130.407 134.669 133.188C137.722 134.865 141.488 134.522 144.188 132.322C144.876 126.491 144.901 120.263 141.61 118.114Z" fill="#F8C6A3"/>
<path fill-rule="evenodd" clip-rule="evenodd" d="M135.51 127.842C135.51 126.734 136.177 125.736 137.2 125.312C138.223 124.889 139.4 125.123 140.183 125.906C140.965 126.69 141.199 127.867 140.775 128.89C140.351 129.913 139.352 130.579 138.245 130.578C136.734 130.577 135.51 129.353 135.51 127.842Z" fill="#DD8964"/>
<path fill-rule="evenodd" clip-rule="evenodd" d="M138.246 130.573C140.829 130.553 142.811 127.727 142.392 124.332C141.898 120.332 138.638 119.627 136.627 119.739C134.522 119.824 132.828 121.498 132.718 123.602C133.497 121.869 135.46 121.006 137.264 121.602C140.615 122.496 139.532 127.502 138.414 127.839C137.296 128.176 138.246 130.573 138.246 130.573Z" fill="#DD8964"/>
<path fill-rule="evenodd" clip-rule="evenodd" d="M138.053 117.738C136.093 117.4 134.087 117.979 132.609 119.309C130.639 120.968 130.209 123.574 130.53 125.971C130.538 126.028 130.679 126.12 130.69 126.043C131.039 123.45 131.575 120.807 133.935 119.243C135.191 118.451 136.616 117.966 138.095 117.829C138.156 117.817 138.08 117.744 138.053 117.738Z" fill="#FDDEBC"/>
<path fill-rule="evenodd" clip-rule="evenodd" d="M145.146 133.201C144.78 132.238 144.372 130.578 144.372 130.578C143.508 131.361 142.503 131.972 141.41 132.378C138.433 133.475 135.117 133.139 132.42 131.468C133.058 132.174 133.821 132.757 134.67 133.187C137.144 134.533 140.12 134.587 142.641 133.33C146.331 142.707 152.052 146.623 160.557 150.158C162.775 151.047 165.085 151.687 167.444 152.067C157.175 150.212 148.676 143.021 145.146 133.201Z" fill="#F2A37C"/>
<path fill-rule="evenodd" clip-rule="evenodd" d="M173.626 149.026C172.033 148.623 170.506 147.994 169.092 147.157C169.092 147.157 170.047 149.057 173.471 149.843C177.293 150.721 179.226 149.496 179.226 149.496C177.346 149.615 175.459 149.457 173.626 149.026Z" fill="#F2A37C"/>
<path fill-rule="evenodd" clip-rule="evenodd" d="M101.544 212.389C101.488 216.14 100.198 226.223 107.937 234.079C115.676 241.935 130.57 238.886 133.558 238.179C135.818 237.755 138.124 237.636 140.415 237.827C142.009 237.795 146.16 236.772 146.864 233.607C146.864 233.607 142.408 235.951 139.125 230.792C135.529 224.717 135.631 217.142 139.389 211.166C142.873 205.816 150.334 204.657 152.372 204.412C152.372 204.412 151.866 201.984 148.536 201.563C146.719 201.332 142.036 203.509 135.611 205.375C125.998 208.171 113.542 212.607 101.544 212.389Z" fill="#4477BB"/>
<path fill-rule="evenodd" clip-rule="evenodd" d="M140.966 203.975C137.514 205.461 133.493 211.268 132.573 216.575C133.865 212.946 135.943 209.647 138.657 206.914C140.586 204.968 144.098 203.322 144.485 202.995C144.896 202.651 143.276 202.98 140.966 203.975Z" fill="#71ABDE"/>
<path fill-rule="evenodd" clip-rule="evenodd" d="M133.559 238.183C135.819 237.759 138.125 237.64 140.416 237.831C142.01 237.799 146.161 236.776 146.865 233.611C144.725 234.603 142.194 234.16 140.518 232.5L138.835 233.278C138.835 233.278 137.648 235.723 134.942 232.694C131.236 228.544 131.955 219.556 131.955 219.556C130.104 230.249 134.722 234.522 134.139 234.831C133.556 235.14 123.32 237.77 116.229 233.362C109.138 228.954 110.774 215.783 114.639 214.062C118.559 212.319 123.039 210.9 129.806 207.118C121.25 209.698 111.249 212.565 101.545 212.389C101.489 216.14 100.199 226.223 107.938 234.079C115.677 241.935 130.572 238.886 133.559 238.183Z" fill="#3E65AE"/>
<path fill-rule="evenodd" clip-rule="evenodd" d="M141.692 206.639C144.608 205.556 147.656 204.875 150.755 204.614C149.584 203.228 145.923 203.771 141.692 206.639Z" fill="#295296"/>
<path fill-rule="evenodd" clip-rule="evenodd" d="M152.373 204.416C155.279 203.977 166.42 203.524 172.273 206.872C178.406 210.383 179.181 214.972 178.703 219.988C178.226 225.004 146.868 233.611 146.868 233.611C146.868 233.611 145.859 235.728 142.169 234.978C138.478 234.228 135.819 230.813 134.998 223.848C134.178 216.883 137.456 209.509 141.691 206.641C144.402 204.976 147.591 204.263 150.753 204.616L152.373 204.416Z" fill="#F8C6A3"/>
<path fill-rule="evenodd" clip-rule="evenodd" d="M156.268 218.635C156.268 218.635 152.207 219.554 146.14 224.725C141.169 228.962 138.484 229.747 136.708 224.972C134.932 220.197 136.545 212.701 139.497 208.625C136.03 212.897 134.41 218.376 134.997 223.847C135.817 230.812 138.48 234.226 142.167 234.977C145.854 235.728 146.867 233.61 146.867 233.61C146.867 233.61 150.72 222.343 156.268 218.635Z" fill="#F2A37C"/>
<path fill-rule="evenodd" clip-rule="evenodd" d="M146.864 233.611C145.347 234.223 143.772 234.681 142.164 234.978C145.855 235.728 146.864 233.611 146.864 233.611Z" fill="#295296"/>
<path fill-rule="evenodd" clip-rule="evenodd" d="M178.699 219.985C178.241 226.412 171.461 250.351 169.979 256.528C168.687 261.913 167.88 265.172 167.88 265.172C159.628 271.704 151.438 275.123 143.312 275.256C143.312 275.256 143.713 261.891 143.713 254.371C143.713 246.851 143.977 240.322 146.55 232.803C147.331 230.519 151.085 221.856 156.272 218.632C163.182 214.339 169.998 218.41 178.699 219.985Z" fill="#F8C6A3"/>
<path fill-rule="evenodd" clip-rule="evenodd" d="M156.557 254.827C150.568 255.632 149.016 254.827 147.745 248.396C146.474 241.965 148.026 229.34 149.905 225.828C148.57 228.044 147.446 230.381 146.546 232.807C143.974 240.326 143.709 246.856 143.709 254.375C143.709 258.433 143.594 264.19 143.488 268.634L149.088 267.856L167.594 263.174C167.594 263.174 168.032 262.798 168.608 262.224C168.959 260.783 169.426 258.857 169.983 256.532C170.021 256.372 170.066 256.189 170.111 256.001C167.348 254.537 162.002 254.095 156.557 254.827Z" fill="#F2A37C"/>
<path fill-rule="evenodd" clip-rule="evenodd" d="M173 222.876C171.387 222.386 169.933 221.478 168.785 220.244C167.585 218.858 167.071 217.029 166.406 217.397C165.077 218.134 165.741 223.457 168.476 225.249C170.177 226.541 172.455 226.781 174.387 225.871C175.348 225.385 176.529 223.836 173 222.876Z" fill="#F2A37C"/>
<path opacity="0.3" fill-rule="evenodd" clip-rule="evenodd" d="M178.699 219.988C179.177 214.969 178.399 210.382 172.269 206.872C168.991 204.996 164.052 204.314 159.832 204.154C164.48 204.554 174.539 207.536 176.699 214.119C177.248 215.788 177.199 218.558 176.768 222.776C175.758 232.705 172.601 246.476 172.598 246.487C175.11 236.99 178.385 224.387 178.699 219.988Z" fill="white"/>
<path fill-rule="evenodd" clip-rule="evenodd" d="M167.885 265.174C168.312 263.39 168.967 261.668 169.833 260.051C170.352 259.36 170.352 258.151 167.154 257.459C163.956 256.767 155.396 257.199 149.089 259.274C142.782 261.349 141.571 263.596 141.917 264.546C142.263 265.496 143.77 271.193 143.317 275.259C151.42 275.156 159.612 271.684 167.885 265.174Z" fill="#EFF8FC"/>
<path fill-rule="evenodd" clip-rule="evenodd" d="M169.268 261.124V261.117C169.268 261.117 162.931 259.681 154.013 261.953C144.852 264.286 142.561 266.985 142.561 266.985C142.76 267.894 142.971 268.971 143.129 270.113C144.252 269.222 147.265 267.313 154.013 265.591C158.585 264.376 163.344 264.025 168.046 264.556C168.379 263.387 168.787 262.241 169.268 261.124V261.124Z" fill="#4477BB"/>
<g style="mix-blend-mode:multiply" opacity="0.2">
<path fill-rule="evenodd" clip-rule="evenodd" d="M154.33 273.091C153.699 272.842 152.995 272.855 152.373 273.126C148.479 274.418 147.61 271.484 147.592 269.5C147.626 267.411 147.334 265.328 146.726 263.329C146.409 262.627 146.394 261.825 146.684 261.112C146.975 260.398 147.546 259.835 148.264 259.555C142.67 261.548 141.581 263.638 141.912 264.546C142.258 265.497 143.765 271.193 143.312 275.259C147.083 275.184 150.812 274.45 154.33 273.091Z" fill="#242357"/>
</g>
<path fill-rule="evenodd" clip-rule="evenodd" d="M150.639 272.046C148.839 273.32 144.7 273.446 143.232 270.923C143.232 270.923 142.573 271.317 141.86 273.377C141.147 275.437 140.293 280.289 141.86 282.905C144.867 281.371 148.057 280.226 151.353 279.497C156.584 278.388 163.797 274.504 166.253 272.84C168.709 271.176 179.014 265.23 186.701 268.956C186.701 268.956 184.086 264.835 177.033 264.914C169.98 264.993 167.882 265.176 167.882 265.176C167.882 265.176 158.556 265.541 154.206 267.53C151.432 268.796 152.541 270.698 150.639 272.046Z" fill="#4477BB"/>
<g style="mix-blend-mode:multiply" opacity="0.2">
<path fill-rule="evenodd" clip-rule="evenodd" d="M166.252 272.838C168.102 271.627 170.063 270.595 172.11 269.758C171.638 267.621 170.916 265.507 169.871 265.071C169.514 265.084 169.21 265.098 168.958 265.11H168.947C165.988 266.561 165.797 270.838 165.797 270.838C164.137 271.1 158.797 274.399 156.844 275.255C153.017 276.93 150.868 276.699 149.966 276.047C148.697 275.131 148.779 272.787 148.779 272.787C146.807 273.187 144.304 272.766 143.229 270.92C143.229 270.92 142.57 271.314 141.857 273.374C141.144 275.434 140.29 280.286 141.857 282.902C144.864 281.368 148.054 280.223 151.35 279.494C156.583 278.386 163.795 274.502 166.252 272.838Z" fill="#242357"/>
</g>
<path fill-rule="evenodd" clip-rule="evenodd" d="M186.691 268.945C179.413 265.43 169.798 270.563 166.714 272.536C166.858 272.436 165.622 268.246 168.945 265.114C172.268 261.982 184.791 262.222 186.691 268.945Z" fill="#EFF8FC"/>
<path fill-rule="evenodd" clip-rule="evenodd" d="M186.691 268.942C183.591 263.273 174.778 265.442 172.453 266.355C170.128 267.268 167.09 267.955 167.486 267.016C166.694 268.74 166.426 270.658 166.714 272.533C169.8 270.563 179.415 265.43 186.691 268.942Z" fill="#A9CBD3"/>
<path fill-rule="evenodd" clip-rule="evenodd" d="M186.693 268.946C185.441 267.535 183.699 266.654 181.82 266.48C177.154 266.015 172.474 267.21 168.603 269.857C164.715 272.399 160.603 274.582 156.319 276.378C152.302 278.124 143.919 278.765 141.375 281.95C141.375 281.95 140.695 283.073 140.889 286.077C140.84 288.641 142.485 290.932 144.93 291.704C147.704 292.813 155.789 293.367 165.854 290.04C175.919 286.713 182.554 286.229 186.698 280.291C190.301 275.126 188.03 270.498 186.693 268.946Z" fill="#DEF1F8"/>
<mask id="mask1" style="mask-type:alpha" maskUnits="userSpaceOnUse" x="140" y="266" width="49" height="27">
<path fill-rule="evenodd" clip-rule="evenodd" d="M186.693 268.946C185.441 267.535 183.699 266.654 181.82 266.48C177.154 266.015 172.474 267.21 168.603 269.857C164.715 272.399 160.603 274.582 156.319 276.378C152.302 278.124 143.919 278.765 141.375 281.95C141.375 281.95 140.695 283.073 140.889 286.077C140.84 288.641 142.485 290.932 144.93 291.704C147.704 292.813 155.789 293.367 165.854 290.04C175.919 286.713 182.554 286.229 186.698 280.291C190.301 275.126 188.03 270.498 186.693 268.946Z" fill="white"/>
</mask>
<g mask="url(#mask1)">
<path d="M189.601 272.537C187.88 269.155 182.401 266.359 174.782 268.792C167.005 271.275 165.646 274.605 157.363 277.737C149.08 280.869 141.905 279.875 139.735 286.937" stroke="#4477BB"/>
</g>
<path fill-rule="evenodd" clip-rule="evenodd" d="M181.588 269.506C176.19 269.428 170.919 271.149 166.606 274.397C162.834 277.132 158.6 279.165 154.106 280.397C150.197 281.519 148.077 281.386 144.235 283.14C142.202 283.885 140.961 285.946 141.253 288.092C141.83 289.815 143.197 291.159 144.93 291.706C147.704 292.815 155.789 293.369 165.854 290.042C175.919 286.715 182.554 286.231 186.698 280.293C188.316 278.144 188.953 275.414 188.453 272.771C187.637 271.129 186.525 269.622 181.588 269.506Z" fill="#E8914F"/>
<path fill-rule="evenodd" clip-rule="evenodd" d="M151.278 291.124C149.311 291.221 147.343 290.965 145.466 290.367C144.169 289.984 143.127 289.013 142.654 287.745C142.546 286.278 143.441 284.923 144.832 284.445C146.683 283.614 148.632 283.024 150.632 282.688C151.746 282.462 153.008 282.205 154.499 281.777C159.157 280.504 163.546 278.397 167.452 275.558C171.374 272.602 176.141 270.983 181.052 270.939C181.216 270.939 181.381 270.939 181.545 270.945C185.745 271.045 186.531 272.175 187.074 273.234C187.426 275.438 186.862 277.691 185.514 279.47C182.623 283.615 178.358 284.843 171.902 286.703C169.958 287.262 167.754 287.897 165.402 288.677C160.853 290.237 156.085 291.064 151.276 291.128L151.278 291.124Z" fill="#D1783B"/>
<mask id="mask2" style="mask-type:alpha" maskUnits="userSpaceOnUse" x="142" y="270" width="46" height="22">
<path fill-rule="evenodd" clip-rule="evenodd" d="M151.278 291.124C149.311 291.221 147.343 290.965 145.466 290.367C144.169 289.984 143.127 289.013 142.654 287.745C142.546 286.278 143.441 284.923 144.832 284.445C146.683 283.614 148.632 283.024 150.632 282.688C151.746 282.462 153.008 282.205 154.499 281.777C159.157 280.504 163.546 278.397 167.452 275.558C171.374 272.602 176.141 270.983 181.052 270.939C181.216 270.939 181.381 270.939 181.545 270.945C185.745 271.045 186.531 272.175 187.074 273.234C187.426 275.438 186.862 277.691 185.514 279.47C182.623 283.615 178.358 284.843 171.902 286.703C169.958 287.262 167.754 287.897 165.402 288.677C160.853 290.237 156.085 291.064 151.276 291.128L151.278 291.124Z" fill="white"/>
</mask>
<g mask="url(#mask2)">
<path fill-rule="evenodd" clip-rule="evenodd" d="M183.831 283.132L185.409 271.165L186.359 271.29L184.781 283.257L183.831 283.132Z" fill="#C66D32"/>
<path fill-rule="evenodd" clip-rule="evenodd" d="M179.764 285.49L181.76 270.344L182.71 270.469L180.713 285.615L179.764 285.49Z" fill="#C66D32"/>
<path fill-rule="evenodd" clip-rule="evenodd" d="M175.844 286.853L177.878 271.192L178.828 271.315L176.794 286.976L175.844 286.853Z" fill="#C66D32"/>
<path fill-rule="evenodd" clip-rule="evenodd" d="M171.903 288.035L174.129 271.688L175.077 271.817L172.852 288.164L171.903 288.035Z" fill="#C66D32"/>
<path fill-rule="evenodd" clip-rule="evenodd" d="M168 289.286L169.981 273.813L170.931 273.934L168.95 289.408L168 289.286Z" fill="#C66D32"/>
<path fill-rule="evenodd" clip-rule="evenodd" d="M164.154 289.841L165.949 276.24L166.899 276.365L165.104 289.966L164.154 289.841Z" fill="#C66D32"/>
<path fill-rule="evenodd" clip-rule="evenodd" d="M160.271 290.925L161.848 278.958L162.798 279.084L161.22 291.05L160.271 290.925Z" fill="#C66D32"/>
<path fill-rule="evenodd" clip-rule="evenodd" d="M156.32 292.055L157.898 280.087L158.848 280.213L157.27 292.18L156.32 292.055Z" fill="#C66D32"/>
<path fill-rule="evenodd" clip-rule="evenodd" d="M152.581 292.171L153.981 281.549L154.931 281.674L153.531 292.296L152.581 292.171Z" fill="#C66D32"/>
<path fill-rule="evenodd" clip-rule="evenodd" d="M148.828 291.983L150.075 282.527L151.025 282.652L149.778 292.108L148.828 291.983Z" fill="#C66D32"/>
<path fill-rule="evenodd" clip-rule="evenodd" d="M145.165 291.047L146.168 283.448L147.117 283.573L146.115 291.172L145.165 291.047Z" fill="#C66D32"/>
<path fill-rule="evenodd" clip-rule="evenodd" d="M142.944 285.796L143.318 284.915L158.555 291.371L158.182 292.253L142.944 285.796Z" fill="#C66D32"/>
<path fill-rule="evenodd" clip-rule="evenodd" d="M148.454 283.437L148.824 282.554L165.718 289.619L165.349 290.502L148.454 283.437Z" fill="#C66D32"/>
<path fill-rule="evenodd" clip-rule="evenodd" d="M156.035 281.506L156.417 280.628L172.571 287.66L172.189 288.538L156.035 281.506Z" fill="#C66D32"/>
<path fill-rule="evenodd" clip-rule="evenodd" d="M161.534 279.136L161.908 278.255L178.988 285.514L178.614 286.395L161.534 279.136Z" fill="#C66D32"/>
<path fill-rule="evenodd" clip-rule="evenodd" d="M166.533 276.17L166.917 275.293L183.965 282.757L183.581 283.634L166.533 276.17Z" fill="#C66D32"/>
<path fill-rule="evenodd" clip-rule="evenodd" d="M171.066 273.568L171.439 272.685L187.542 279.484L187.169 280.367L171.066 273.568Z" fill="#C66D32"/>
<path fill-rule="evenodd" clip-rule="evenodd" d="M177.462 271.374L177.835 270.492L188.779 275.114L188.406 275.996L177.462 271.374Z" fill="#C66D32"/>
</g>
<path fill-rule="evenodd" clip-rule="evenodd" d="M187.083 273.23C187.038 273.143 186.99 273.055 186.94 272.968C186.913 274.744 186.33 276.467 185.274 277.896C182.384 282.041 178.119 283.27 171.662 285.129C169.718 285.689 167.514 286.323 165.162 287.103C160.613 288.663 155.845 289.491 151.036 289.554C149.069 289.652 147.1 289.395 145.224 288.797C144.171 288.459 143.276 287.753 142.701 286.809C142.633 287.117 142.62 287.434 142.662 287.746C143.135 289.014 144.176 289.985 145.474 290.368C147.351 290.966 149.319 291.222 151.286 291.125C156.095 291.061 160.863 290.234 165.412 288.674C167.769 287.894 169.972 287.26 171.912 286.7C178.368 284.84 182.633 283.611 185.524 279.467C186.872 277.687 187.435 275.435 187.083 273.23Z" fill="#C66D32"/>
<path d="M185.448 270.935L183.448 282.903" stroke="#E8914F"/>
<path d="M181.382 270.115L179.382 285.262" stroke="#E8914F"/>
<path d="M177.498 270.963L175.449 286.622" stroke="#E8914F"/>
<path d="M173.738 271.46L171.519 287.808" stroke="#E8914F"/>
<path d="M169.615 273.584L167.615 289.056" stroke="#E8914F"/>
<path d="M165.772 276.012L163.772 289.614" stroke="#E8914F"/>
<path d="M161.888 278.729L159.888 290.697" stroke="#E8914F"/>
<path d="M157.938 279.858L155.938 291.826" stroke="#E8914F"/>
<path d="M154.197 281.32L152.197 291.943" stroke="#E8914F"/>
<path d="M150.444 282.298L148.444 291.755" stroke="#E8914F"/>
<path d="M146.781 283.218L144.781 290.818" stroke="#E8914F"/>
<path d="M142.269 285.064L157.507 291.521" stroke="#E8914F"/>
<path d="M147.776 282.705L164.664 289.765" stroke="#E8914F"/>
<path d="M155.363 280.776L171.518 287.808" stroke="#E8914F"/>
<path d="M160.859 278.404L177.943 285.67" stroke="#E8914F"/>
<path d="M165.864 275.44L182.912 282.903" stroke="#E8914F"/>
<path d="M170.391 272.835L186.494 279.634" stroke="#E8914F"/>
<path d="M176.786 270.641L187.735 275.258" stroke="#E8914F"/>
<circle cx="307.154" cy="97.7613" r="25.1691" fill="#7A60A6"/>
<path fill-rule="evenodd" clip-rule="evenodd" d="M331.645 91.9829C330.255 86.0711 326.764 80.8657 321.823 77.3359C321.999 77.9259 325.399 89.859 315.723 101.914C306.023 114.002 288.348 113.523 287.561 113.495C294.915 122.659 307.637 125.507 318.197 120.354C328.757 115.2 334.339 103.419 331.64 91.9829H331.645Z" fill="#6D5298"/>
<path fill-rule="evenodd" clip-rule="evenodd" d="M329.766 92.0039C332.097 101.903 327.761 112.173 319.041 117.406C310.321 122.638 299.218 121.633 291.58 114.918C300.839 119.6 312.033 118.023 319.638 110.965C327.242 103.907 329.647 92.86 325.666 83.2789C327.627 85.8692 329.023 88.8413 329.766 92.0039H329.766Z" fill="#5F4589"/>
<path opacity="0.25" fill-rule="evenodd" clip-rule="evenodd" d="M285.419 95.3619C284.419 91.1149 287.052 86.8618 291.299 85.8622C295.546 84.8626 299.799 87.4951 300.799 91.7421C301.798 95.989 299.166 100.242 294.919 101.242C292.879 101.722 290.733 101.372 288.951 100.269C287.17 99.1667 285.899 97.4014 285.419 95.3619Z" fill="#F298BB"/>
<path opacity="0.25" fill-rule="evenodd" clip-rule="evenodd" d="M287.203 92.666C286.781 90.873 287.481 89.0023 288.976 87.9261C290.471 86.8499 292.467 86.7803 294.033 87.7496C295.599 88.719 296.427 90.5364 296.131 92.3544C295.835 94.1724 294.473 95.633 292.68 96.0549C290.232 96.6305 287.78 95.1135 287.203 92.666Z" fill="#F298BB"/>
<path opacity="0.25" fill-rule="evenodd" clip-rule="evenodd" d="M304.914 85.62C303.915 81.373 306.547 77.1198 310.794 76.1202C315.041 75.1206 319.294 77.7531 320.294 82.0001C321.293 86.247 318.661 90.5003 314.414 91.5C312.375 91.98 310.228 91.6302 308.446 90.5275C306.665 89.4248 305.394 87.6595 304.914 85.62Z" fill="#F298BB"/>
<path opacity="0.25" fill-rule="evenodd" clip-rule="evenodd" d="M307.232 82.477C306.837 80.8025 307.491 79.0554 308.887 78.0504C310.283 77.0453 312.147 76.9803 313.61 77.8856C315.072 78.7909 315.846 80.4882 315.569 82.1861C315.292 83.8839 314.02 85.2479 312.346 85.6419C310.059 86.18 307.77 84.763 307.232 82.477Z" fill="#F298BB"/>
<path opacity="0.25" fill-rule="evenodd" clip-rule="evenodd" d="M295.194 80.942C294.831 79.4061 295.429 77.8027 296.709 76.8802C297.99 75.9577 299.7 75.8979 301.042 76.7286C302.384 77.5594 303.093 79.117 302.838 80.6745C302.583 82.232 301.414 83.4824 299.878 83.8419C298.872 84.0787 297.813 83.9061 296.935 83.3622C296.056 82.8184 295.43 81.9478 295.194 80.942Z" fill="#F298BB"/>
<path opacity="0.25" fill-rule="evenodd" clip-rule="evenodd" d="M296.048 79.975C295.852 79.1479 296.174 78.2843 296.864 77.7873C297.553 77.2904 298.474 77.2581 299.197 77.7056C299.92 78.153 300.301 78.992 300.164 79.8308C300.026 80.6696 299.396 81.3427 298.569 81.536C297.442 81.7991 296.315 81.101 296.048 79.975Z" fill="#F298BB"/>
<path opacity="0.15" fill-rule="evenodd" clip-rule="evenodd" d="M315.478 77.342C312.441 75.73 300.992 73.525 292.448 82.342C285.486 89.6169 283.985 100.541 288.727 109.424C288.003 106.348 287.757 95.624 294.479 87.483C301.201 79.342 310.957 77.784 315.478 77.342Z" fill="#D6B6D8"/>
<path fill-rule="evenodd" clip-rule="evenodd" d="M315.477 77.342C315.477 77.342 301.572 73.119 292.57 83.602C283.568 94.085 287.708 107.687 288.727 109.419C288.727 109.419 280.25 95.063 291.343 82.528C301.699 70.826 315.477 77.342 315.477 77.342Z" fill="#D7CEE7"/>
<path fill-rule="evenodd" clip-rule="evenodd" d="M350.576 122.552C349.206 125.439 337.992 123.182 322.797 117.46C316.521 115.095 309.561 112.136 302.336 108.708C294.852 105.156 287.935 101.503 281.995 98.022C268.321 90.016 259.758 82.929 261.11 80.082C262.394 77.382 272.292 79.188 286.01 84.118C285.539 84.8504 285.105 85.606 284.71 86.382C279.145 84.777 275.456 84.406 274.869 85.646C274.251 86.946 277.169 89.774 282.387 93.302C289.288 97.797 296.502 101.793 303.973 105.259C311.165 108.74 318.585 111.729 326.182 114.205C332.603 116.2 336.93 116.761 337.571 115.411C338.181 114.123 335.326 111.335 330.196 107.852C330.54 107.068 330.845 106.267 331.108 105.452C343.957 113.113 351.879 119.807 350.576 122.552Z" fill="#D5E9F9"/>
<path fill-rule="evenodd" clip-rule="evenodd" d="M350 123.358C348.629 126.245 337.415 123.988 322.221 118.266C315.944 115.901 308.985 112.942 301.759 109.514C294.276 105.962 287.359 102.309 281.418 98.8279C267.743 90.8219 259.181 83.7349 260.532 80.8879C261.816 78.1879 271.774 80.0279 285.489 84.9569C285.046 85.6912 284.647 86.4516 284.295 87.2339C278.73 85.6279 274.88 85.2109 274.295 86.4509C273.678 87.7509 276.595 90.5789 281.814 94.1069C288.715 98.602 295.929 102.598 303.401 106.064C310.592 109.545 318.012 112.534 325.609 115.01C332.03 117.005 336.357 117.566 336.999 116.216C337.609 114.928 334.906 112.231 329.775 108.748C330.119 107.964 330.518 107.221 330.782 106.406C343.627 114.066 351.303 120.614 350 123.358Z" fill="#F49639"/>
<path fill-rule="evenodd" clip-rule="evenodd" d="M350.576 122.552C349.206 125.439 337.992 123.182 322.797 117.46C316.521 115.095 309.561 112.136 302.336 108.708C294.852 105.156 287.935 101.503 281.995 98.022C268.321 90.016 259.758 82.929 261.11 80.082C262.394 77.382 272.292 79.188 286.01 84.118C285.539 84.8504 285.105 85.606 284.71 86.382C279.145 84.777 275.456 84.406 274.869 85.646C274.251 86.946 277.169 89.774 282.387 93.302C289.288 97.797 296.502 101.793 303.973 105.259C311.165 108.74 318.585 111.729 326.182 114.205C332.603 116.2 336.93 116.761 337.571 115.411C338.181 114.123 335.326 111.335 330.196 107.852C330.54 107.068 330.845 106.267 331.108 105.452C343.957 113.113 351.879 119.807 350.576 122.552Z" fill="#FFE568"/>
<path fill-rule="evenodd" clip-rule="evenodd" d="M344.656 115.359C347.212 117.841 351.363 120.759 349.295 122.5C347.227 124.241 330.995 121.1 300.118 106.738C300.118 106.738 331.469 118.871 339.574 120.297C347.615 121.711 348.744 120.624 344.656 115.359Z" fill="#FCC231"/>
<path fill-rule="evenodd" clip-rule="evenodd" d="M275.904 81.4819C272.487 80.7909 264.065 78.7259 262.45 80.2959C260.835 81.8659 270.467 90.0769 273.945 92.0359C273.945 92.0359 265.303 85.0599 264.929 81.8429C264.648 79.4409 275.904 81.4819 275.904 81.4819Z" fill="#FFEDB2"/>
<path fill-rule="evenodd" clip-rule="evenodd" d="M284.637 85.4249C282.472 84.7526 280.265 84.2202 278.031 83.8309C274.847 83.3249 271.046 82.8199 271.437 84.9849C271.828 87.1499 274.728 89.8059 280.602 93.8849C286.476 97.9639 296.394 103.539 296.394 103.539C296.394 103.539 281.877 96.2489 276.317 92.3489C270.757 88.4489 267.401 84.5069 268.177 82.8099C269.145 80.6929 277.956 82.1099 285.043 84.9099L284.637 85.4249Z" fill="#FFDA60"/>
<path fill-rule="evenodd" clip-rule="evenodd" d="M68.3052 127.774C68.3052 127.774 42.4612 131.563 21.5451 124.153C20.9598 123.943 20.6395 123.313 20.8142 122.716C21.1601 121.529 21.7422 119.439 22.3142 116.961C23.6512 111.18 68.3052 127.774 68.3052 127.774Z" fill="#A9CBD3"/>
<path fill-rule="evenodd" clip-rule="evenodd" d="M22.3138 116.961C21.9598 118.493 21.6028 119.876 21.2998 120.991C42.1848 129.274 68.2998 127.774 68.2998 127.774C68.2998 127.774 23.6498 111.18 22.3138 116.961Z" fill="#8CB8BF"/>
<path fill-rule="evenodd" clip-rule="evenodd" d="M26.57 92.613C26.57 92.613 26.7699 103.863 23.694 109.649C20.6181 115.435 57.767 128.361 68.3059 127.775C68.3059 127.775 53.841 115.587 45.9059 105.838C40.7572 99.7822 34.0806 95.2157 26.57 92.613Z" fill="#CCE4EA"/>
<path opacity="0.5" fill-rule="evenodd" clip-rule="evenodd" d="M23.6938 109.649C20.6198 115.435 57.7668 128.361 68.3057 127.775C51.4708 122.375 28.4128 103.227 28.4128 103.227C28.2851 99.6216 27.665 96.0505 26.5698 92.613C26.5698 92.6131 26.7678 103.863 23.6938 109.649Z" fill="#A9CBD3"/>
<path fill-rule="evenodd" clip-rule="evenodd" d="M15.2391 95.714C14.1631 95.908 9.15711 96.74 3.86719 97.202C-4.08178 97.896 -10.9418 96.537 -10.0508 98.668C-9.25573 100.568 3.16224 112.757 20.9843 119.448C38.8063 126.139 61.0732 128.348 68.3053 127.773C58.0518 123.987 48.1753 119.249 38.8053 113.621C24.0571 104.635 18.3262 95.155 15.2391 95.714Z" fill="#F7FCFE"/>
<path fill-rule="evenodd" clip-rule="evenodd" d="M68.3054 127.774C68.3054 127.774 58.5814 117.738 52.9214 106.818C45.5094 92.5121 43.7504 81.5361 42.9653 80.4881C42.1803 79.4401 38.8793 81.9481 33.6073 85.9881C31.0796 87.9943 28.7252 90.2097 26.5693 92.611C26.5693 92.6111 51.6154 122.005 68.3054 127.774Z" fill="#F7FCFE"/>
<path fill-rule="evenodd" clip-rule="evenodd" d="M11.2702 97.958C2.69223 100.103 -7.68876 98.344 -5.29374 101.286C-2.89872 104.228 20.7563 122.505 54.5953 125.524C54.5953 125.524 25.0254 118.169 11.9353 110.202C-3.44474 100.842 2.25521 100.956 4.68832 100.402C7.00351 99.9614 9.22836 99.1353 11.2702 97.958Z" fill="white"/>
<path fill-rule="evenodd" clip-rule="evenodd" d="M63.4379 124.561C63.4379 124.561 40.4188 106.775 29.0879 93.0381C29.0879 93.0381 33.7878 86.7121 39.6479 83.582C39.6479 83.582 34.8049 88.0041 33.33 90.8821C32.647 92.216 33.9979 95.0201 36.2789 97.958C41.684 104.923 63.4379 124.561 63.4379 124.561Z" fill="white"/>
<path fill-rule="evenodd" clip-rule="evenodd" d="M279.022 169.475C279.022 169.475 259.767 177.74 242.022 176.307C241.525 176.264 241.147 175.842 241.159 175.343C241.183 174.351 241.202 172.611 241.136 170.573C240.983 165.814 279.022 169.475 279.022 169.475Z" fill="#A9CBD3"/>
<path fill-rule="evenodd" clip-rule="evenodd" d="M241.14 170.572C241.181 171.833 241.189 172.979 241.184 173.905C259.084 176.021 279.022 169.475 279.022 169.475C279.022 169.475 240.983 165.814 241.14 170.572Z" fill="#8CB8BF"/>
<path fill-rule="evenodd" clip-rule="evenodd" d="M239.42 150.819C239.42 150.819 241.893 159.499 240.702 164.619C239.511 169.739 270.974 172.1 279.023 169.474C279.023 169.474 265.297 163.007 257.138 157.084C251.897 153.451 245.78 151.287 239.42 150.819Z" fill="#CCE4EA"/>
<path opacity="0.5" fill-rule="evenodd" clip-rule="evenodd" d="M240.702 164.619C239.512 169.738 270.974 172.1 279.023 169.474C264.86 168.761 243.036 158.667 243.036 158.667C242.194 155.898 240.977 153.258 239.42 150.819C239.42 150.819 241.893 159.498 240.702 164.619Z" fill="#A9CBD3"/>
<path fill-rule="evenodd" clip-rule="evenodd" d="M231.278 155.559C230.484 155.932 226.778 157.608 222.769 159.059C216.75 161.236 211.152 161.596 212.282 163.065C213.29 164.375 225.43 171.265 240.625 172.777C255.82 174.289 273.539 171.414 279.025 169.477C270.296 168.655 261.663 167.017 253.239 164.586C239.949 160.653 233.553 154.489 231.278 155.559Z" fill="#F7FCFE"/>
<path fill-rule="evenodd" clip-rule="evenodd" d="M279.023 169.475C279.023 169.475 269.416 163.699 262.776 156.397C254.081 146.835 250.456 138.688 249.63 138.037C248.804 137.386 246.764 140.012 243.511 144.237C241.964 146.313 240.596 148.517 239.42 150.823C239.42 150.823 264.896 168.442 279.023 169.475Z" fill="#F7FCFE"/>
<path fill-rule="evenodd" clip-rule="evenodd" d="M228.661 158.117C222.454 161.547 214.043 162.324 216.506 164.111C218.969 165.898 241.075 175.19 267.93 170.556C267.93 170.556 243.491 170.951 231.701 167.472C217.847 163.386 222.291 162.3 224.062 161.365C225.766 160.547 227.321 159.45 228.661 158.117Z" fill="white"/>
<path fill-rule="evenodd" clip-rule="evenodd" d="M274.586 167.986C274.586 167.986 253.075 158.944 241.459 150.629C241.459 150.629 243.802 144.755 247.697 141.121C247.697 141.121 244.854 145.547 244.304 148.082C244.049 149.257 245.674 151.153 248.048 152.96C253.674 157.246 274.586 167.986 274.586 167.986Z" fill="white"/>
<path fill-rule="evenodd" clip-rule="evenodd" d="M2.55957 168.712H-7.4724C-8.29137 161.916 -14.0563 156.802 -20.9014 156.799V150.489C-20.9039 142.79 -27.1438 136.553 -34.8391 136.555L-34.8353 136.555C-42.5309 136.555 -48.7693 142.793 -48.7693 150.489V154.611C-50.7268 150.628 -55.1727 148.521 -59.4951 149.528C-63.8175 150.536 -66.8741 154.391 -66.8691 158.829L-66.8693 168.713H-78.6033C-80.9087 168.714 -82.7773 170.583 -82.7773 172.888H-82.7772C-82.7773 175.192 -80.9093 177.061 -78.6044 177.062H2.55872C4.86414 177.062 6.73315 175.193 6.73376 172.888C6.73426 171.782 6.29493 170.719 5.51221 169.936C4.72962 169.153 3.66785 168.712 2.56055 168.712H2.55957Z" fill="white"/>
<circle cx="191.097" cy="57.516" r="7.327" fill="white" fill-opacity="0.2"/>
<path fill-rule="evenodd" clip-rule="evenodd" d="M191.096 66.103C190.413 66.103 189.858 65.5489 189.857 64.865V50.165C189.858 49.4811 190.412 48.927 191.096 48.927C191.425 48.927 191.74 49.0574 191.972 49.2896C192.204 49.5218 192.334 49.8366 192.334 50.165V64.865C192.334 65.1939 192.204 65.5088 191.971 65.7408C191.739 65.9729 191.424 66.1032 191.096 66.103H191.096Z" fill="white" fill-opacity="0.298039"/>
<path fill-rule="evenodd" clip-rule="evenodd" d="M199.683 57.515C199.683 58.1989 199.129 58.7534 198.445 58.754H183.745C183.061 58.7534 182.507 58.1989 182.507 57.515C182.507 57.186 182.638 56.8712 182.87 56.6392C183.102 56.4071 183.417 56.2768 183.745 56.277H198.445C198.773 56.277 199.088 56.4074 199.32 56.6396C199.552 56.8717 199.683 57.1866 199.683 57.515Z" fill="white" fill-opacity="0.298039"/>
<path fill-rule="evenodd" clip-rule="evenodd" d="M196.293 57.515C196.293 58.1992 195.739 58.754 195.054 58.7539H187.137C186.453 58.754 185.898 58.1992 185.898 57.515C185.9 56.8315 186.454 56.278 187.137 56.278H195.054C195.738 56.278 196.292 56.8315 196.293 57.515Z" fill="white"/>
<path fill-rule="evenodd" clip-rule="evenodd" d="M191.096 62.713C190.412 62.713 189.857 62.1583 189.857 61.474V53.553C189.857 52.8687 190.412 52.314 191.096 52.314C191.78 52.3145 192.334 52.869 192.334 53.553V61.47C192.335 61.7991 192.206 62.1151 191.973 62.3484C191.741 62.5815 191.426 62.7127 191.096 62.713Z" fill="white"/>
<path fill-rule="evenodd" clip-rule="evenodd" d="M235.469 107.154C235.469 106.063 236.353 105.179 237.443 105.179C238.534 105.179 239.418 106.063 239.419 107.153C239.419 108.244 238.535 109.128 237.445 109.129C236.921 109.129 236.418 108.921 236.047 108.551C235.677 108.18 235.469 107.678 235.469 107.154Z" fill="#FFEDB2"/>
<path fill-rule="evenodd" clip-rule="evenodd" d="M103.623 48.93C103.623 48.1305 104.105 47.4105 104.843 47.1051C105.581 46.7997 106.431 46.9689 106.995 47.534C107.56 48.099 107.729 48.9485 107.422 49.6865C107.117 50.4243 106.396 50.9053 105.597 50.905C104.507 50.9047 103.623 50.0205 103.623 48.93Z" fill="#FFEDB2"/>
<path fill-rule="evenodd" clip-rule="evenodd" d="M95.3662 99.633C95.3658 98.8339 95.8469 98.113 96.5852 97.8068C97.3236 97.5005 98.1737 97.6693 98.739 98.2343C99.3044 98.7993 99.4738 99.6492 99.168 100.388C98.8623 101.126 98.1417 101.608 97.3424 101.608C96.8184 101.608 96.3157 101.4 95.9451 101.03C95.5745 100.659 95.3662 100.157 95.3662 99.633Z" fill="#FFEDB2"/>
<path fill-rule="evenodd" clip-rule="evenodd" d="M214.091 44.774C214.09 43.9755 214.572 43.2548 215.31 42.9487C216.048 42.6426 216.898 42.8114 217.464 43.3763C218.029 43.9413 218.198 44.7911 217.893 45.5296C217.587 46.2681 216.867 46.7498 216.067 46.75C215.543 46.7502 215.04 46.5421 214.67 46.1715C214.299 45.8009 214.091 45.2982 214.091 44.774Z" fill="#FFEDB2"/>
</g>
<defs>
<linearGradient id="paint0_linear" x1="94.2475" y1="231.886" x2="94.2475" y2="309.141" gradientUnits="userSpaceOnUse">
<stop stop-color="#F59D10" stop-opacity="0.501961"/>
<stop offset="0.144" stop-color="#F59D10" stop-opacity="0.470588"/>
<stop offset="0.361" stop-color="#F59D12" stop-opacity="0.384314"/>
<stop offset="0.624" stop-color="#F69E16" stop-opacity="0.247059"/>
<stop offset="0.921" stop-color="#F69F1B" stop-opacity="0.054902"/>
<stop offset="1" stop-color="#F7A01D" stop-opacity="0.01"/>
</linearGradient>
<linearGradient id="paint1_linear" x1="176.336" y1="130.226" x2="176.336" y2="110.479" gradientUnits="userSpaceOnUse">
<stop stop-color="#F2A37C"/>
<stop offset="0.09" stop-color="#F2A47D" stop-opacity="0.968627"/>
<stop offset="0.225" stop-color="#F2A780" stop-opacity="0.882353"/>
<stop offset="0.39" stop-color="#F3AC86" stop-opacity="0.741176"/>
<stop offset="0.577" stop-color="#F4B28D" stop-opacity="0.54902"/>
<stop offset="0.783" stop-color="#F6BB97" stop-opacity="0.298039"/>
<stop offset="1" stop-color="#F8C6A3" stop-opacity="0.01"/>
</linearGradient>
<linearGradient id="paint2_linear" x1="195.755" y1="128.563" x2="195.755" y2="110.446" gradientUnits="userSpaceOnUse">
<stop stop-color="#F2A37C"/>
<stop offset="0.09" stop-color="#F2A47D" stop-opacity="0.968627"/>
<stop offset="0.225" stop-color="#F2A780" stop-opacity="0.882353"/>
<stop offset="0.39" stop-color="#F3AC86" stop-opacity="0.741176"/>
<stop offset="0.577" stop-color="#F4B28D" stop-opacity="0.54902"/>
<stop offset="0.783" stop-color="#F6BB97" stop-opacity="0.298039"/>
<stop offset="1" stop-color="#F8C6A3" stop-opacity="0.01"/>
</linearGradient>
</defs>
</svg>
